<svg xmlns="http://www.w3.org/2000/svg" viewBox="0 0 512 512"><path d="M257.7 112.2c-36.1 0-65.5 29.4-65.5 65.5s29.4 65.5 65.5 65.5 65.5-29.4 65.5-65.5-29.4-65.5-65.5-65.5zm0 112.2c-25.8 0-46.8-21-46.8-46.8s21-46.8 46.8-46.8 46.8 21 46.8 46.8-21 46.8-46.8 46.8z" fill="#005e98"/><path d="M382.8 52.5C348.9 18.7 303.9 0 256 0c-47.9 0-92.9 18.7-126.8 52.5-62.7 62.7-70.5 180.6-16.9 252L256 512l143.4-207.2c53.9-71.7 46.1-189.6-16.6-252.3zm1.5 241.4L256 479.1 127.5 293.6c-48.6-64.8-41.6-171.3 14.9-227.9 30.3-30.3 70.7-47 113.6-47s83.2 16.7 113.6 47c56.6 56.6 63.5 163.1 14.7 228.2z" fill="#eead1a"/></svg>