<?xml version="1.0" encoding="utf-8"?>
<!-- Generator: Adobe Illustrator 22.0.1, SVG Export Plug-In . SVG Version: 6.00 Build 0)  -->
<svg version="1.1" id="Capa_1" xmlns="http://www.w3.org/2000/svg" xmlns:xlink="http://www.w3.org/1999/xlink" x="0px" y="0px"
	 viewBox="0 0 512 512" style="enable-background:new 0 0 512 512;" xml:space="preserve">
<style type="text/css">
	.st0{fill:url(#SVGID_1_);}
	.st1{fill:url(#SVGID_2_);}
	.st2{fill:url(#SVGID_3_);}
	.st3{fill:url(#SVGID_4_);}
	.st4{fill:url(#SVGID_5_);}
	.st5{fill:url(#SVGID_6_);}
	.st6{fill:url(#SVGID_7_);}
</style>
<g>
	<linearGradient id="SVGID_1_" gradientUnits="userSpaceOnUse" x1="256.0005" y1="17.9765" x2="256.0005" y2="502.9858">
		<stop  offset="0" style="stop-color:#FDB620"/>
		<stop  offset="1" style="stop-color:#F8931F"/>
	</linearGradient>
	<path class="st0" d="M409.6,68.3h-52.8c-3.6-10.2-13.2-17-24-17.1h-17.7C310.9,21.8,285.7,0,256,0s-54.9,21.8-59.1,51.2h-17.7
		c-10.8,0-20.4,6.9-24,17.1h-52.8c-18.9,0-34.1,15.3-34.1,34.1v375.5c0,18.9,15.3,34.1,34.1,34.1h307.2c18.9,0,34.1-15.3,34.1-34.1
		V102.4C443.7,83.6,428.5,68.3,409.6,68.3z M248.1,48c0.4-1,1-2,1.8-2.8c3.4-3.2,8.7-3.2,12.1,0c0.8,0.8,1.4,1.8,1.8,2.8
		c0.5,1,0.7,2.1,0.7,3.2c0,2.3-0.9,4.5-2.5,6.1s-3.8,2.5-6.1,2.5c-2.3,0-4.5-0.9-6.1-2.5c-1.6-1.6-2.5-3.8-2.5-6.1
		C247.5,50.1,247.7,49,248.1,48z M179.2,136.6h153.6c10.8,0,20.4-6.9,24-17.1h35.7v341.3H119.5V119.5h35.7
		C158.8,129.7,168.4,136.5,179.2,136.6z M426.7,477.9L426.7,477.9c0,9.4-7.6,17.1-17.1,17.1H102.4c-9.4,0-17.1-7.6-17.1-17.1V102.4
		c0-9.4,7.6-17.1,17.1-17.1h51.2v17.1h-34.1c-9.4,0-17.1,7.6-17.1,17.1v341.3c0,9.4,7.6,17.1,17.1,17.1h273.1
		c9.4,0,17.1-7.6,17.1-17.1V119.5c0-9.4-7.6-17.1-17.1-17.1h-34.1V85.4h51.2c9.4,0,17.1,7.6,17.1,17.1V477.9z"/>
	<linearGradient id="SVGID_2_" gradientUnits="userSpaceOnUse" x1="256" y1="17.9765" x2="256" y2="502.9858">
		<stop  offset="0" style="stop-color:#FDB620"/>
		<stop  offset="1" style="stop-color:#F8931F"/>
	</linearGradient>
	<path class="st1" d="M349.9,392.6H162.1c-4.7,0-8.5,3.8-8.5,8.5c0,4.7,3.8,8.5,8.5,8.5h187.7c4.7,0,8.5-3.8,8.5-8.5
		C358.4,396.4,354.6,392.6,349.9,392.6z"/>
	<linearGradient id="SVGID_3_" gradientUnits="userSpaceOnUse" x1="256" y1="17.9765" x2="256" y2="502.9858">
		<stop  offset="0" style="stop-color:#FDB620"/>
		<stop  offset="1" style="stop-color:#F8931F"/>
	</linearGradient>
	<path class="st2" d="M349.9,349.9H162.1c-4.7,0-8.5,3.8-8.5,8.5c0,4.7,3.8,8.5,8.5,8.5h187.7c4.7,0,8.5-3.8,8.5-8.5
		C358.4,353.7,354.6,349.9,349.9,349.9z"/>
	<linearGradient id="SVGID_4_" gradientUnits="userSpaceOnUse" x1="256" y1="17.9765" x2="256" y2="502.9858">
		<stop  offset="0" style="stop-color:#FDB620"/>
		<stop  offset="1" style="stop-color:#F8931F"/>
	</linearGradient>
	<path class="st3" d="M349.9,307.2H162.1c-4.7,0-8.5,3.8-8.5,8.5c0,4.7,3.8,8.5,8.5,8.5h187.7c4.7,0,8.5-3.8,8.5-8.5
		C358.4,311,354.6,307.2,349.9,307.2z"/>
	<linearGradient id="SVGID_5_" gradientUnits="userSpaceOnUse" x1="256" y1="17.9765" x2="256" y2="502.9858">
		<stop  offset="0" style="stop-color:#FDB620"/>
		<stop  offset="1" style="stop-color:#F8931F"/>
	</linearGradient>
	<path class="st4" d="M349.9,264.6H162.1c-4.7,0-8.5,3.8-8.5,8.5c0,4.7,3.8,8.5,8.5,8.5h187.7c4.7,0,8.5-3.8,8.5-8.5
		C358.4,268.4,354.6,264.6,349.9,264.6z"/>
	<linearGradient id="SVGID_6_" gradientUnits="userSpaceOnUse" x1="256" y1="17.9765" x2="256" y2="502.9858">
		<stop  offset="0" style="stop-color:#FDB620"/>
		<stop  offset="1" style="stop-color:#F8931F"/>
	</linearGradient>
	<path class="st5" d="M153.6,230.4c0,4.7,3.8,8.5,8.5,8.5h187.7c4.7,0,8.5-3.8,8.5-8.5c0-4.7-3.8-8.5-8.5-8.5H162.1
		C157.4,221.9,153.6,225.7,153.6,230.4z"/>
	<linearGradient id="SVGID_7_" gradientUnits="userSpaceOnUse" x1="204.8" y1="17.9765" x2="204.8" y2="502.9858">
		<stop  offset="0" style="stop-color:#FDB620"/>
		<stop  offset="1" style="stop-color:#F8931F"/>
	</linearGradient>
	<path class="st6" d="M162.1,196.3h85.3c4.7,0,8.5-3.8,8.5-8.5c0-4.7-3.8-8.5-8.5-8.5h-85.3c-4.7,0-8.5,3.8-8.5,8.5
		S157.4,196.3,162.1,196.3z"/>
</g>
</svg>
