<?xml version="1.0" encoding="utf-8"?>
<!-- Generator: Adobe Illustrator 22.0.1, SVG Export Plug-In . SVG Version: 6.00 Build 0)  -->
<svg version="1.1" id="_x31_" xmlns="http://www.w3.org/2000/svg" xmlns:xlink="http://www.w3.org/1999/xlink" x="0px" y="0px"
	 viewBox="0 0 512 512" style="enable-background:new 0 0 512 512;" xml:space="preserve">
<style type="text/css">
	.st0{fill:#005E98;}
</style>
<g>
	<path class="st0" d="M488,220.5H368v-130c0-13.2-10.8-24-24-24H24c-13.2,0-24,10.8-24,24v164c0,13.2,10.8,24,24,24h120v130
		c0,13.2,10.8,24,24,24h320c13.2,0,24-10.8,24-24v-164C512,231.3,501.2,220.5,488,220.5z M24,262.5c-4.4,0-8-3.6-8-8v-164
		c0-4.4,3.6-8,8-8h320c4.4,0,8,3.6,8,8v164c0,4.4-3.6,8-8,8H160h-16H24z M496,408.5c0,4.4-3.6,8-8,8H168c-4.4,0-8-3.6-8-8v-130h184
		c13.2,0,24-10.8,24-24v-18h120c4.4,0,8,3.6,8,8V408.5z"/>
	<path class="st0" d="M44.8,210.5h176c4.4,0,8-3.6,8-8s-3.6-8-8-8h-176c-4.4,0-8,3.6-8,8S40.3,210.5,44.8,210.5z"/>
	<path class="st0" d="M250.8,210.5h72.5c4.4,0,8-3.6,8-8s-3.6-8-8-8h-72.5c-4.4,0-8,3.6-8,8S246.3,210.5,250.8,210.5z"/>
	<path class="st0" d="M359,377.2H228.8c-4.4,0-8,3.6-8,8s3.6,8,8,8H359c4.4,0,8-3.6,8-8S363.4,377.2,359,377.2z"/>
	<path class="st0" d="M427.3,377.2H389c-4.4,0-8,3.6-8,8s3.6,8,8,8h38.3c4.4,0,8-3.6,8-8S431.7,377.2,427.3,377.2z"/>
	<path class="st0" d="M44.8,116.5h72.5c4.4,0,8-3.6,8-8s-3.6-8-8-8H44.8c-4.4,0-8,3.6-8,8S40.3,116.5,44.8,116.5z"/>
	<path class="st0" d="M183.3,234.5c0-4.4-3.6-8-8-8H44.8c-4.4,0-8,3.6-8,8s3.6,8,8,8h130.5C179.7,242.5,183.3,238.9,183.3,234.5z"/>
	<path class="st0" d="M323.3,226.5h-110c-4.4,0-8,3.6-8,8s3.6,8,8,8h110c4.4,0,8-3.6,8-8S327.7,226.5,323.3,226.5z"/>
	<circle class="st0" cx="328" cy="326.5" r="36.8"/>
</g>
</svg>
