<?xml version="1.0" encoding="utf-8"?>
<!-- Generator: Adobe Illustrator 22.0.1, SVG Export Plug-In . SVG Version: 6.00 Build 0)  -->
<svg version="1.1" id="_x31_" xmlns="http://www.w3.org/2000/svg" xmlns:xlink="http://www.w3.org/1999/xlink" x="0px" y="0px"
	 viewBox="0 0 512 512" style="enable-background:new 0 0 512 512;" xml:space="preserve">
<style type="text/css">
	.st0{fill:#005E98;}
</style>
<g>
	<path class="st0" d="M443.7,64h-42.7c-4.7,0-8.5,3.8-8.5,8.5v34.1c0,4.7,3.8,8.5,8.5,8.5h42.7c4.7,0,8.5-3.8,8.5-8.5V72.5
		C452.3,67.8,448.4,64,443.7,64z"/>
	<path class="st0" d="M486.4,132.3V55.5c0-14.1-11.5-25.6-25.6-25.6H25.6C11.5,29.9,0,41.3,0,55.5v162.1c0,14.1,11.5,25.6,25.6,25.6
		h8.5V424c-10.2,3.6-17,13.2-17.1,24v25.6c0,4.7,3.8,8.5,8.5,8.5h68.3c4.7,0,8.5-3.8,8.5-8.5V448c0-10.8-6.9-20.4-17.1-24v-10.1
		h315.7V424c-10.2,3.6-17,13.2-17.1,24v25.6c0,4.7,3.8,8.5,8.5,8.5h68.3c4.7,0,8.5-3.8,8.5-8.5V448c0-10.8-6.9-20.4-17.1-24V243.2
		h8.5c14.1,0,25.6-11.5,25.6-25.6v-8.5c14.1,0,25.6-11.5,25.6-25.6v-25.6C512,143.7,500.5,132.3,486.4,132.3z M25.6,226.1
		L25.6,226.1c-4.7,0-8.5-3.8-8.5-8.5V55.5c0-4.7,3.8-8.5,8.5-8.5h42.7v179.2H25.6z M68.3,243.2v179.2H51.2V243.2H68.3z M375.5,46.9
		L375.5,46.9h85.3c4.7,0,8.5,3.8,8.5,8.5v76.8h-93.9V46.9z M85.3,46.9h273.1v42.7H85.3V46.9z M85.3,106.7h273.1v42.7h-17.1v-17.1
		c0-4.7-3.8-8.5-8.5-8.5H110.9c-4.7,0-8.5,3.8-8.5,8.5v17.1H85.3V106.7z M358.4,166.4v59.7h-17.1v-59.7H358.4z M324.3,140.8V320
		c0,4.7-3.8,8.5-8.5,8.5H128c-4.7,0-8.5-3.8-8.5-8.5V140.8H324.3z M85.3,166.4h17.1v59.7H85.3V166.4z M401.1,396.8H85.3v-17.1h315.7
		V396.8z M401.1,362.7H85.3V243.2h17.1V320c0,14.1,11.5,25.6,25.6,25.6h187.7c14.1,0,25.6-11.5,25.6-25.6v-76.8h59.7V362.7z
		 M418.1,422.4V243.2h17.1v179.2H418.1z M469.3,217.6L469.3,217.6c0,4.7-3.8,8.5-8.5,8.5h-85.3v-17.1h93.9V217.6z"/>
	<path class="st0" d="M150.4,174.3c2.1,0.9,4.4,0.9,6.5,0c1-0.4,2-1,2.8-1.8c1.6-1.6,2.4-3.8,2.5-6.1c0-1.1-0.2-2.2-0.7-3.2
		c-0.8-2.1-2.5-3.8-4.6-4.6c-2.1-0.9-4.4-0.9-6.5,0c-2.1,0.8-3.8,2.5-4.6,4.6c-0.4,1-0.7,2.1-0.7,3.2c0,2.3,0.9,4.4,2.5,6.1
		C148.4,173.2,149.3,173.8,150.4,174.3z"/>
	<path class="st0" d="M183,173.5c0.4,0.3,0.9,0.6,1.5,0.8c0.5,0.2,1,0.4,1.5,0.5c0.6,0.1,1.1,0.2,1.7,0.2c2.3,0,4.4-0.9,6.1-2.5
		c0.4-0.4,0.7-0.8,1-1.3c0.3-0.5,0.6-1,0.8-1.5c0.2-0.5,0.4-1,0.5-1.5c0.1-0.6,0.2-1.1,0.2-1.7c0-1.1-0.2-2.2-0.7-3.2
		c-0.4-1-1-2-1.8-2.8c-3.4-3.2-8.7-3.2-12.1,0c-0.8,0.8-1.4,1.8-1.8,2.8c-0.4,1-0.7,2.1-0.7,3.2c0,2.3,0.9,4.4,2.5,6.1
		C182.1,172.8,182.5,173.1,183,173.5z"/>
	<path class="st0" d="M221.7,174.9c0.1,0,0.1,0,0.2,0c4.7,0,8.5-3.7,8.5-8.4c0-0.1,0-0.1,0-0.2c0-1.1-0.2-2.2-0.7-3.2
		c-0.4-1-1-2-1.8-2.8c-3.4-3.2-8.7-3.2-12.1,0c-0.8,0.8-1.4,1.8-1.8,2.8c-0.4,1-0.7,2.1-0.7,3.2C213.3,171.1,217,174.9,221.7,174.9z
		"/>
	<path class="st0" d="M255.8,174.9c0.1,0,0.1,0,0.2,0c0.6,0,1.1-0.1,1.7-0.2c0.5-0.1,1.1-0.3,1.5-0.5c0.5-0.2,1.1-0.4,1.5-0.8
		c0.4-0.3,0.9-0.7,1.3-1c1.6-1.6,2.4-3.8,2.5-6.1c0-1.1-0.2-2.2-0.7-3.2c-0.4-1-1-2-1.8-2.8c-3.4-3.2-8.7-3.2-12.1,0
		c-0.8,0.8-1.4,1.8-1.8,2.8c-0.4,1-0.7,2.1-0.7,3.2C247.4,171.1,251.2,174.9,255.8,174.9z"/>
	<path class="st0" d="M285.4,173.5c0.5,0.3,1,0.6,1.5,0.8c0.5,0.2,1,0.4,1.5,0.5c0.6,0.1,1.1,0.2,1.7,0.2c0.6,0,1.1-0.1,1.7-0.2
		c0.5-0.1,1.1-0.3,1.5-0.5c0.5-0.2,1-0.4,1.5-0.8c0.5-0.3,0.9-0.7,1.4-1c1.6-1.6,2.4-3.8,2.5-6.1c0-1.1-0.2-2.2-0.7-3.2
		c-0.4-1-1-2-1.8-2.8c-0.4-0.3-0.9-0.7-1.4-1c-0.4-0.3-0.9-0.6-1.5-0.8c-0.5-0.2-1-0.4-1.5-0.5c-2.8-0.6-5.7,0.3-7.8,2.3
		c-0.8,0.8-1.4,1.8-1.8,2.8c-0.4,1-0.7,2.1-0.7,3.2c0,2.3,0.9,4.4,2.5,6.1C284.5,172.8,284.9,173.1,285.4,173.5z"/>
	<path class="st0" d="M162.3,193.7c0.1,0.5,0.3,1.1,0.5,1.5c0.2,0.5,0.4,1.1,0.8,1.5c0.3,0.4,0.7,0.9,1,1.3c0.4,0.4,0.8,0.7,1.3,1
		c0.5,0.3,1,0.6,1.5,0.8c0.5,0.2,1,0.4,1.5,0.5c0.6,0.1,1.1,0.2,1.7,0.2c0.6,0,1.1-0.1,1.7-0.2c0.5-0.1,1.1-0.3,1.5-0.5
		c0.5-0.2,1.1-0.4,1.5-0.8c0.4-0.3,0.9-0.7,1.3-1c3.4-3.3,3.4-8.8,0.1-12.1c-3.3-3.4-8.8-3.4-12.1-0.1c-1.6,1.6-2.6,3.8-2.5,6.1
		C162.1,192.6,162.2,193.1,162.3,193.7z"/>
	<path class="st0" d="M196.4,193.7c0.1,0.5,0.3,1.1,0.5,1.5c0.2,0.5,0.4,1.1,0.8,1.5c0.3,0.4,0.7,0.9,1,1.3c0.4,0.4,0.8,0.7,1.3,1
		c0.5,0.3,1,0.6,1.5,0.8c0.5,0.2,1,0.4,1.5,0.5c0.6,0.1,1.1,0.2,1.7,0.2c0.6,0,1.1-0.1,1.7-0.2c0.5-0.1,1.1-0.3,1.5-0.5
		c0.5-0.2,1.1-0.4,1.5-0.8c0.4-0.3,0.9-0.7,1.3-1c3.4-3.3,3.4-8.8,0.1-12.1c-3.3-3.4-8.8-3.4-12.1-0.1c-1.6,1.6-2.6,3.8-2.5,6.1
		C196.3,192.6,196.3,193.1,196.4,193.7z"/>
	<path class="st0" d="M230.6,193.7c0.1,0.5,0.3,1.1,0.5,1.5c0.2,0.5,0.4,1.1,0.8,1.5c0.3,0.4,0.7,0.9,1,1.3c1.6,1.6,3.8,2.4,6.1,2.5
		c0.6,0,1.1-0.1,1.7-0.2c0.5-0.1,1.1-0.3,1.5-0.5c0.5-0.2,1.1-0.4,1.5-0.8c0.4-0.3,0.9-0.7,1.3-1c3.4-3.3,3.4-8.8,0.1-12.1
		c-3.3-3.4-8.8-3.4-12.1-0.1c-1.6,1.6-2.6,3.8-2.5,6.1C230.4,192.6,230.5,193.1,230.6,193.7z"/>
	<path class="st0" d="M267,198.1c3.3,3.3,8.8,3.3,12.1,0c3.3-3.3,3.3-8.8,0-12.1c-0.8-0.8-1.8-1.4-2.8-1.8c-2.1-0.9-4.4-0.9-6.5,0
		c-1,0.4-2,1-2.8,1.8C263.7,189.3,263.7,194.7,267,198.1L267,198.1z"/>
</g>
</svg>
