<?xml version="1.0" encoding="utf-8"?>
<!-- Generator: Adobe Illustrator 22.0.1, SVG Export Plug-In . SVG Version: 6.00 Build 0)  -->
<svg version="1.1" id="Layer_1" xmlns="http://www.w3.org/2000/svg" xmlns:xlink="http://www.w3.org/1999/xlink" x="0px" y="0px"
	 viewBox="0 0 512 512" style="enable-background:new 0 0 512 512;" xml:space="preserve">
<style type="text/css">
	.st0{fill:url(#SVGID_1_);}
	.st1{fill:url(#SVGID_2_);}
</style>
<g>
	<linearGradient id="SVGID_1_" gradientUnits="userSpaceOnUse" x1="256.0279" y1="9" x2="256.0279" y2="507.004">
		<stop  offset="0" style="stop-color:#FDB620"/>
		<stop  offset="1" style="stop-color:#F8931F"/>
	</linearGradient>
	<path class="st0" d="M346.2,161.3H165.8c-8.3,0-15.1,3.4-19.3,9.5c-7,10.4-4.6,26.4-0.5,37c8.3,20.9,31.6,36.7,54.3,36.7
		c14.5,0,26.2,9.2,26.2,20.4v21.7c0,13.6,12.3,24.6,27.4,24.6c15.1,0,27.4-11,27.4-24.6v-21.7c0-11.3,11.8-20.4,26.2-20.4h4
		c19.2,0,38.7-11,49.6-28c5.2-8.1,13.3-29.4,5.5-43.8C362.7,165.3,355.4,161.3,346.2,161.3z M344.5,205.7
		c-7.4,11.5-20.3,18.9-32.9,18.9h-4c-25.4,0-46.1,18.1-46.1,40.3v21.7c0,2.2-3.2,4.7-7.6,4.7c-4.3,0-7.6-2.5-7.6-4.7v-21.7
		c0-22.2-20.7-40.3-46.1-40.3c-14.7,0-30.5-10.6-35.9-24.2c-3.1-7.7-3.3-16-1.6-18.5c0.1-0.2,0.6-0.8,2.9-0.8h180.3
		c2.6,0,2.9,0.7,3.1,1C351.5,186.2,349,198.8,344.5,205.7z"/>
	<linearGradient id="SVGID_2_" gradientUnits="userSpaceOnUse" x1="256.001" y1="9" x2="256.001" y2="507.004">
		<stop  offset="0" style="stop-color:#FDB620"/>
		<stop  offset="1" style="stop-color:#F8931F"/>
	</linearGradient>
	<path class="st1" d="M412.3,159.6V70.8c16.1-3.5,28.2-17.8,28.2-35v0c0-19.8-16-35.8-35.8-35.8H107.2C87.5,0,71.4,16,71.4,35.8v0
		c0,17.2,12.1,31.5,28.2,35v88.8c0,46.1,25.8,87.8,65.7,108.8c-39.9,21-65.7,62.7-65.7,108.8v64c-16.1,3.5-28.2,17.8-28.2,35v0
		c0,19.8,16,35.8,35.8,35.8h297.5c19.8,0,35.8-16,35.8-35.8v0c0-17.2-12.1-31.5-28.2-35v-64c0-46.1-25.8-87.8-65.7-108.8
		C386.6,247.4,412.3,205.7,412.3,159.6z M154.9,439.5V428c0-15.6,22.6-30.4,46.5-30.4h4.3c14.2,0,20.4-9,25-15.6
		c5.3-7.7,9.5-13.8,27.4-13.8c17.4,0,21.7,6.1,27.2,13.8c4.7,6.6,11.1,15.6,25.3,15.6c23.9,0,46.5,14.8,46.5,30.4v11.5
		c-0.2,0.2-0.6,0.6-1.2,0.9H156.1C155.5,440,155.1,439.7,154.9,439.5z M322.2,254.3c-6,2.1-10,7.7-10,14.1s4,12,10,14.1
		c40.4,13.9,67.5,52,67.5,94.7v63.2h-12.8c0-0.2,0-0.5,0-0.7V428c0-13.9-7.8-26.9-21.9-36.7c-12.5-8.6-28.7-13.6-44.5-13.6
		c-3.6,0-4.8-1.2-9.1-7.2c-6.3-8.8-15.7-22.1-43.3-22.1c-28.3,0-37.6,13.4-43.7,22.3c-4.3,6.2-5.3,7-8.7,7h-4.3
		c-15.8,0-32,4.9-44.5,13.6c-14.1,9.7-21.9,22.8-21.9,36.7v11.7c0,0.2,0,0.5,0,0.7h-12.8v-63.2c0-42.7,27.1-80.8,67.5-94.7
		c6-2.1,10-7.7,10-14.1s-4-12-10-14.1c-40.4-13.9-67.5-52-67.5-94.7v-88h267.3v88C389.7,202.4,362.5,240.4,322.2,254.3z"/>
</g>
</svg>
