<svg version="1.1" id="_1" xmlns="http://www.w3.org/2000/svg" x="0" y="0" viewBox="0 0 512 512" xml:space="preserve"><style>.st0{fill:#005e98}</style><path class="st0" d="M341.3 332.8H170.7c-23.6 0-42.6 19.1-42.7 42.7v59.7c0 23.6 19.1 42.6 42.7 42.7h170.7c23.6 0 42.6-19.1 42.7-42.7v-59.7c-.1-23.6-19.2-42.7-42.8-42.7zm-110.9 69.3v21.2c-.1.8-3 3.4-8.5 3.4s-8.4-2.6-8.5-3.4v-21.2l8.5-11.9 8.5 11.9zm136.5 33.1c0 14.1-11.5 25.6-25.6 25.6H170.7c-14.1 0-25.6-11.5-25.6-25.6V384h60.2l-7.4 10.4c-1 1.4-1.6 3.2-1.6 5v23.9c0 11.5 11.2 20.5 25.6 20.5s25.6-9 25.6-20.5v-23.9c0-1.8-.6-3.5-1.6-5l-7.4-10.4H367l-.1 51.2zM256 93.9c-70.6 0-128 61.3-128 136.5 0 4.7 3.8 8.5 8.5 8.5s8.5-3.8 8.5-8.5c0-65.9 49.8-119.5 110.9-119.5s110.9 53.6 110.9 119.5c0 4.7 3.8 8.5 8.5 8.5s8.5-3.8 8.5-8.5C384 155.1 326.6 93.9 256 93.9z"/><path class="st0" d="M324.3 315.7c9.4 0 17.1-7.6 17.1-17.1V196.3c0-18.8-15.3-34.1-34.1-34.1H204.8c-18.8 0-34.1 15.3-34.1 34.1v102.4c0 9.4 7.6 17.1 17.1 17.1h136.5zM238.9 240v21.2c-.1.8-3 3.4-8.5 3.4s-8.4-2.6-8.5-3.4V240l8.5-11.9 8.5 11.9zm-51.2-18.1h26.1l-7.4 10.4c-1 1.4-1.6 3.2-1.6 5v23.9c0 11.5 11.2 20.5 25.6 20.5s25.6-9 25.6-20.5v-23.9c0-1.8-.6-3.5-1.6-5l-7.4-10.4h77.3v76.8H187.7v-76.8z"/><path class="st0" d="M443.7 290.1h-25.6v-68.3c0-52.4-25.5-101.6-68.3-132V42.7c0-23.6-19.1-42.6-42.7-42.7H204.8c-23.6 0-42.6 19.1-42.7 42.7v47.2c-42.8 30.3-68.2 79.5-68.3 132v68.3H68.3c-23.6 0-42.6 19.1-42.7 42.7V367c0 2.3.9 4.4 2.5 6 1.6 1.6 3.8 2.5 6 2.5v93.9c0 9.4 7.6 17.1 17.1 17.1h42.7c0 14.1 11.5 25.6 25.6 25.6h273.1c14.1 0 25.6-11.5 25.6-25.6h42.7c9.4 0 17.1-7.6 17.1-17.1v-93.9c2.3 0 4.4-.9 6-2.5 1.6-1.6 2.5-3.8 2.5-6v-34.1c-.1-23.7-19.2-42.7-42.8-42.8zM93.9 469.3H51.2v-93.9h42.7v93.9zM307.2 68.2C274 57 238 57 204.8 68.2V44.8c0-.5.2-1.1.5-1.5.1-.1.2-.1.3-.2.2-.2.4-.4.6-.4h99.5c.2 0 .4.2.6.4.1.1.2.1.3.2.3.4.5 1 .5 1.5l.1 23.4zm93.9 230.5v187.7c0 4.7-3.8 8.5-8.5 8.5H119.5c-4.7 0-8.5-3.8-8.5-8.5V221.9c.1-51.7 27.7-99.5 72.5-125.4 1.3-.7 2.5-1.6 3.8-2.3 2.3-1.3 4.8-2.3 7.2-3.5 2.2-1 4.3-2.1 6.5-3 35.3-14.6 75-14.6 110.3 0 3 1.2 5.9 2.7 8.8 4.1 1.5.7 3 1.4 4.4 2.1 2.6 1.4 5.1 3 7.6 4.5 42.9 26.3 69.1 73 69.1 123.4l-.1 76.9zm59.7 170.6h-42.7v-93.9h42.7v93.9z"/></svg>