<svg version="1.1" id="Capa_1" xmlns="http://www.w3.org/2000/svg" x="0" y="0" viewBox="0 0 512 512" xml:space="preserve"><style>.st1{fill:#005e98}</style><path d="M430.2 17.1l-43.5 43.4 48.5 38.6v-82zM72.5 119.5H128V85.3l-51.2 31.5zm9.3-102.4h-5v82l48.5-38.6zM384 85.3v34.2h51.2v-2.7zM68.3 494.9h375.5V136.5H68.3v358.4zm256-341.3c18.8 0 34.1 15.3 34.1 34.1 0 4.7-3.8 8.5-8.5 8.5s-8.5-3.8-8.5-8.5c0-9.4-7.7-17.1-17.1-17.1s-17.1 7.7-17.1 17.1c0 4.7-3.8 8.5-8.5 8.5s-8.5-3.8-8.5-8.5c-.1-18.8 15.2-34.1 34.1-34.1zm-8.6 85.3v-51.2c0-4.7 3.8-8.5 8.5-8.5s8.5 3.8 8.5 8.5v51.2c0 42.4-34.5 76.8-76.8 76.8s-76.8-34.4-76.8-76.8v-51.2c0-4.7 3.8-8.5 8.5-8.5s8.5 3.8 8.5 8.5v51.2c0 32.9 26.8 59.7 59.7 59.7s59.9-26.7 59.9-59.7zm-128-85.3c18.8 0 34.1 15.3 34.1 34.1 0 4.7-3.8 8.5-8.5 8.5s-8.5-3.8-8.5-8.5c0-9.4-7.7-17.1-17.1-17.1-9.4 0-17.1 7.7-17.1 17.1 0 4.7-3.8 8.5-8.5 8.5s-8.5-3.8-8.5-8.5c0-18.8 15.3-34.1 34.1-34.1z" fill="none"/><path class="st1" d="M162.1 196.3c4.7 0 8.5-3.8 8.5-8.5 0-9.4 7.7-17.1 17.1-17.1 9.4 0 17.1 7.7 17.1 17.1 0 4.7 3.8 8.5 8.5 8.5s8.5-3.8 8.5-8.5c0-18.8-15.3-34.1-34.1-34.1s-34.1 15.3-34.1 34.1c0 4.7 3.8 8.5 8.5 8.5zm136.6 0c4.7 0 8.5-3.8 8.5-8.5 0-9.4 7.7-17.1 17.1-17.1s17.1 7.7 17.1 17.1c0 4.7 3.8 8.5 8.5 8.5s8.5-3.8 8.5-8.5c0-18.8-15.3-34.1-34.1-34.1s-34.1 15.3-34.1 34.1c-.1 4.7 3.8 8.5 8.5 8.5z"/><path class="st1" d="M452.3 112.7V0H59.7v112.7l17.1-13.6v-82l48.5 43.5-48.5 38.5v17.7l51.2-38v40.7H51.2V512h409.6V119.5l-8.5-6.8zm-17.1-95.6v82l-48.5-38.6 48.5-43.4zM384 78.8l51.2 38.1 4.3 2.6H384V78.8zm59.7 416.1H68.3V136.5h375.5v358.4zM76.8 116.8l-4.3 2.7z"/><path class="st1" d="M59.7 112.7l-8.5 6.8h21.3l4.3-2.7V99.1zm136.6 126.2v-51.2c0-4.7-3.8-8.5-8.5-8.5s-8.5 3.8-8.5 8.5v51.2c0 42.4 34.5 76.8 76.8 76.8s76.8-34.4 76.8-76.8v-51.2c0-4.7-3.8-8.5-8.5-8.5s-8.5 3.8-8.5 8.5v51.2c0 32.9-26.8 59.7-59.7 59.7s-59.9-26.7-59.9-59.7z"/></svg>