<svg version="1.1" id="Layer_1" xmlns="http://www.w3.org/2000/svg" x="0" y="0" viewBox="0 0 512 512" xml:space="preserve"><style>.st0{fill:#005e98}</style><path class="st0" d="M366.9 170.7h-17.1c-4.7 0-8.5 3.8-8.5 8.5s3.8 8.5 8.5 8.5h17.1c4.7 0 8.5-3.8 8.5-8.5s-3.8-8.5-8.5-8.5zm0 34.1h-17.1c-4.7 0-8.5 3.8-8.5 8.5s3.8 8.5 8.5 8.5h17.1c4.7 0 8.5-3.8 8.5-8.5.1-4.7-3.8-8.5-8.5-8.5zm0-68.3h-17.1c-4.7 0-8.5 3.8-8.5 8.5s3.8 8.5 8.5 8.5h17.1c4.7 0 8.5-3.8 8.5-8.5.1-4.6-3.8-8.5-8.5-8.5zm0 273.1h-17.1c-4.7 0-8.5 3.8-8.5 8.5s3.8 8.5 8.5 8.5h17.1c4.7 0 8.5-3.8 8.5-8.5.1-4.7-3.8-8.5-8.5-8.5zM179.2 136.5H128c-4.7 0-8.5 3.8-8.5 8.5v119.5c0 4.7 3.8 8.5 8.5 8.5h51.2c4.7 0 8.5-3.8 8.5-8.5V145.1c0-4.7-3.8-8.6-8.5-8.6zm0 273.1H128c-4.7 0-8.5 3.8-8.5 8.5s3.8 8.5 8.5 8.5h51.2c4.7 0 8.5-3.8 8.5-8.5s-3.8-8.5-8.5-8.5zm0 34.1H128c-4.7 0-8.5 3.8-8.5 8.5s3.8 8.5 8.5 8.5h51.2c4.7 0 8.5-3.8 8.5-8.5 0-4.6-3.8-8.5-8.5-8.5zm187.7 0h-17.1c-4.7 0-8.5 3.8-8.5 8.5s3.8 8.5 8.5 8.5h17.1c4.7 0 8.5-3.8 8.5-8.5.1-4.6-3.8-8.5-8.5-8.5zm102.4 0h-34.1c-4.7 0-8.5 3.8-8.5 8.5s3.8 8.5 8.5 8.5h34.1c4.7 0 8.5-3.8 8.5-8.5.1-4.6-3.8-8.5-8.5-8.5zM281.6 136.5h-34.1c-4.7 0-8.5 3.8-8.5 8.5v119.5c0 4.7 3.8 8.5 8.5 8.5h34.1c4.7 0 8.5-3.8 8.5-8.5V145.1c0-4.7-3.8-8.6-8.5-8.6zm187.7 273.1h-34.1c-4.7 0-8.5 3.8-8.5 8.5s3.8 8.5 8.5 8.5h34.1c4.7 0 8.5-3.8 8.5-8.5.1-4.7-3.8-8.5-8.5-8.5zm-187.7 34.1h-34.1c-4.7 0-8.5 3.8-8.5 8.5s3.8 8.5 8.5 8.5h34.1c4.7 0 8.5-3.8 8.5-8.5 0-4.6-3.8-8.5-8.5-8.5zm153.6-136.5c4.7 0 8.5-3.8 8.5-8.5v-85.3c0-4.7-3.8-8.5-8.5-8.5s-8.5 3.8-8.5 8.5v85.3c0 4.7 3.8 8.5 8.5 8.5zm34.1-102.4c-4.7 0-8.5 3.8-8.5 8.5v85.3c0 4.7 3.8 8.5 8.5 8.5s8.5-3.8 8.5-8.5v-85.3c.1-4.7-3.8-8.5-8.5-8.5z"/><path class="st0" d="M486.4 68.3h-76.8V42.7c0-14.4-11.2-25.6-25.6-25.6h-51.2c-11.1 0-20.6 7.1-24.1 17.1h-86.8v-8.5c0-14.4-11.2-25.6-25.6-25.6H111C96.8 0 85.3 11.5 85.3 25.6v25.6H25.6C11.5 51.2 0 62.7 0 76.8v409.6C0 500.5 11.5 512 25.6 512h460.8c14.1 0 25.6-11.5 25.6-25.6V93.9c0-14.1-11.5-25.6-25.6-25.6zM42.7 119.5h42.7V495H25.6c-4.7 0-8.5-3.8-8.5-8.5V76.8c0-4.7 3.8-8.5 8.5-8.5h59.7v34.1H42.7c-4.7 0-8.5 3.8-8.5 8.5-.1 4.7 3.8 8.6 8.5 8.6zm59.7 375.4V68.3h76.8c4.7 0 8.5-3.8 8.5-8.5s-3.8-8.5-8.5-8.5h-76.8V25.6c0-4.8 3.7-8.5 8.5-8.5h85.3c4.9 0 8.5 3.7 8.5 8.5v469.3H102.4zm119.5 0V51.2h85.3v443.7h-85.3zm170.6 0h-68.3V85.3h42.7c4.7 0 8.5-3.8 8.5-8.5s-3.8-8.5-8.5-8.5h-42.7V42.7c0-4.8 3.7-8.5 8.5-8.5H384c4.9 0 8.5 3.7 8.5 8.5v452.2zm102.4-8.5c0 4.7-3.8 8.5-8.5 8.5h-76.8V136.5h51.2c4.7 0 8.5-3.8 8.5-8.5s-3.8-8.5-8.5-8.5h-51.2V85.3h76.8c4.7 0 8.5 3.8 8.5 8.5v392.6z"/><path class="st0" d="M59.7 409.6h-17c-4.7 0-8.5 3.8-8.5 8.5s3.8 8.5 8.5 8.5h17.1c4.7 0 8.5-3.8 8.5-8.5s-3.9-8.5-8.6-8.5zm0 34.1h-17c-4.7 0-8.5 3.8-8.5 8.5s3.8 8.5 8.5 8.5h17.1c4.7 0 8.5-3.8 8.5-8.5 0-4.6-3.9-8.5-8.6-8.5zm221.9-34.1h-34.1c-4.7 0-8.5 3.8-8.5 8.5s3.8 8.5 8.5 8.5h34.1c4.7 0 8.5-3.8 8.5-8.5s-3.8-8.5-8.5-8.5zM42.7 221.9h17.1c4.7 0 8.5-3.8 8.5-8.5s-3.8-8.5-8.5-8.5H42.7c-4.7 0-8.5 3.8-8.5 8.5s3.8 8.5 8.5 8.5zm17 17h-17c-4.7 0-8.5 3.8-8.5 8.5s3.8 8.5 8.5 8.5h17.1c4.7 0 8.5-3.8 8.5-8.5s-3.9-8.5-8.6-8.5z"/></svg>