<svg version="1.1" id="_x31_" xmlns="http://www.w3.org/2000/svg" x="0" y="0" viewBox="0 0 512 512" xml:space="preserve"><style>.st0{fill:#005e98}</style><path class="st0" d="M354.9 422.7c1.2 0 2.4-.2 3.5-.6L464.5 383c5.3-2 8-7.8 6-13.1s-7.8-8-13.1-6L351.3 403c-5.3 2-8 7.8-6 13.1 1.6 4.1 5.5 6.6 9.6 6.6zm22.3-49.8c1.2 0 2.4-.2 3.5-.6l83.8-30.9c5.3-2 8-7.8 6-13.1s-7.8-8-13.1-6l-83.8 30.9c-5.3 2-8 7.8-6 13.1 1.5 4.1 5.4 6.6 9.6 6.6zm0-41.1c1.2 0 2.4-.2 3.5-.6l83.8-30.9c5.3-2 8-7.8 6-13.1s-7.8-8-13.1-6L373.6 312c-5.3 2-8 7.8-6 13.1 1.5 4.2 5.4 6.7 9.6 6.7z"/><path class="st0" d="M505.3 100.5L259.5 9.8c-2.3-.8-4.8-.8-7.1 0L6.7 100.5c-.8.3-1.6.7-2.3 1.2-2.7 1.9-4.4 5-4.4 8.4v291.8c0 4.3 2.7 8.1 6.7 9.6l245.8 90.7c1.1.4 2.3.6 3.5.6 1.2 0 2.4-.2 3.5-.6l245.8-90.7c4-1.5 6.7-5.3 6.7-9.6V110.1c0-4.3-2.7-8.1-6.7-9.6zM20.4 124.7l45.9 16.9v123.6c0 4.3 2.7 8.1 6.7 9.6l110.2 40.6c1.1.4 2.3.6 3.5.6 2.1 0 4.1-.6 5.8-1.8 2.7-1.9 4.4-5 4.4-8.4v-116l49 18.1V478L20.4 394.8V124.7zM256 189.9l-40-14.8 84.3-31.1c4-1.5 6.7-5.3 6.7-9.6s-2.7-8.1-6.7-9.6L190.2 84.3c-2.3-.8-4.8-.8-7.1 0L76.4 123.6l-36.7-13.5L256 30.3l216.3 79.8L256 189.9zm235.6 204.9L266.2 478V207.9l225.4-83.2v270.1z"/></svg>