<svg version="1.1" id="_x31_" xmlns="http://www.w3.org/2000/svg" x="0" y="0" viewBox="0 0 512 512" xml:space="preserve"><style>.st0{fill:#005e98}</style><path class="st0" d="M81.4 411.1h68.9c9 0 16.6-9.5 16.6-20.9 0-11.3-7.4-20.5-16.6-20.5H112c15.1-12.6 47.8-27.5 53.9-57.6V359c0 33.8 20 53.2 54.9 53.2 35 0 55.1-19.4 55.1-53.2 0-55.7.2-54.6-.5-60.5 3.4 6.7 10.1 10.9 17.6 9.4v86.3c0 22.4 45.2 22.5 45.2 0V271.3c0-14.3-19.9-21-30.4-14.5l-25.5 15.4c-5.6 3.4-8.9 9-9.2 15.7-6.7-21.3-24.9-33.2-52.3-33.2-31 0-50.3 15.3-54.2 42.5-2.8-27.6-28.3-42.5-52.3-42.5-24.8 0-51.2 15.6-51.2 44.7 0 14.7 7.7 23.2 21 23.2 15.2 0 23.4-9.5 23.4-18.5 0-4.3 1.2-7 7-7 6 0 7.2 3.4 7.2 6.2 0 18.5-61 37.8-61 72.4v18.8c0 10.8 12 16.6 20.7 16.6zm129.7-103.2c0-10.9 4.8-11.9 9.7-11.9 6.1 0 9.9 2 9.9 11.9v51.3c0 9.9-3.8 11.9-9.9 11.9-4.9 0-9.7-.9-9.7-11.9v-51.3zm183.3 104.4c34.9 0 54.9-17.3 54.9-47.4 0-15.5-3.5-29.4-16.1-39.1 18.5-17.1 20.9-71.2-38.8-71.2-14.7 0-26.6 3.2-35.2 9.6-20.1 14.8-19.1 47.2-3.6 61.5-10.6 8-16.3 20.7-16.3 36.8v2.3c0 30.2 20 47.5 55.1 47.5zm0-122.1c7.3 0 9.7 1.5 9.7 10.3s-2.1 10-9.7 10c-7.7 0-9.7-1.2-9.7-10-.1-8.8 2.4-10.3 9.7-10.3zm0 55.9c10 0 9.7 6 9.7 15.1 0 10.9-5 11.9-9.7 11.9-6 0-9.9-2-9.9-11.9-.1-9.1-.3-15.1 9.9-15.1z"/><path class="st0" d="M474.9 51.5h-60.3V29.8c0-13.6-11.1-24.7-24.7-24.7s-24.7 11.1-24.7 24.7v21.7h-87.4V24.7C277.7 11.1 266.6 0 253 0s-24.7 11.1-24.7 24.7v26.8h-87.4V28c0-13.6-11.1-24.7-24.7-24.7S91.5 14.4 91.5 28v23.5H37.1c-11.7 0-21.3 9.5-21.3 21.3v417.9c0 11.7 9.5 21.3 21.3 21.3h437.7c11.7 0 21.3-9.5 21.3-21.3V72.8c0-11.7-9.5-21.3-21.2-21.3zm-94.8-21.7c0-5.4 4.4-9.7 9.7-9.7 5.4 0 9.7 4.4 9.7 9.7v55.1c0 5.4-4.4 9.7-9.7 9.7-5.4 0-9.7-4.4-9.7-9.7V29.8zm-136.8-5.1c0-5.4 4.4-9.7 9.7-9.7 5.4 0 9.7 4.4 9.7 9.7v55.1c0 5.4-4.4 9.7-9.7 9.7-5.4 0-9.7-4.4-9.7-9.7V24.7zM106.4 28c0-5.4 4.4-9.7 9.7-9.7 5.4 0 9.7 4.4 9.7 9.7v55.1c0 5.4-4.4 9.7-9.7 9.7-5.4 0-9.7-4.4-9.7-9.7V28zM30.9 72.8c0-3.5 2.8-6.3 6.3-6.3h54.3v16.6c0 13.6 11.1 24.7 24.7 24.7s24.7-11.1 24.7-24.7V66.5h87.4v13.4c0 13.6 11.1 24.7 24.7 24.7s24.7-11.1 24.7-24.7V66.5h87.4v18.4c0 13.6 11.1 24.7 24.7 24.7s24.7-11.1 24.7-24.7V66.5h60.3c3.5 0 6.3 2.8 6.3 6.3v59.6H30.9V72.8zm450.2 271.4v146.5c0 3.5-2.8 6.3-6.3 6.3H37.1c-3.5 0-6.3-2.8-6.3-6.3V179.8h450.3v164.4z"/></svg>