<svg version="1.1" id="_x31_" xmlns="http://www.w3.org/2000/svg" x="0" y="0" viewBox="0 0 512 512" xml:space="preserve"><style>.st0{fill:#005e98}</style><path class="st0" d="M480 12H64c-17.6 0-32 14.4-32 32v24H20C9 68 0 77 0 88s9 20 20 20h12v32H20c-11 0-20 9-20 20s9 20 20 20h12v32H20c-11 0-20 9-20 20s9 20 20 20h12v32H20c-11 0-20 9-20 20s9 20 20 20h12v32H20c-11 0-20 9-20 20s9 20 20 20h12v72c0 17.6 14.4 32 32 32h416c17.6 0 32-14.4 32-32V44c0-17.6-14.4-32-32-32zM16 88c0-2.2 1.8-4 4-4h40c2.2 0 4 1.8 4 4s-1.8 4-4 4H20c-2.2 0-4-1.8-4-4zm0 72c0-2.2 1.8-4 4-4h40c2.2 0 4 1.8 4 4s-1.8 4-4 4H20c-2.2 0-4-1.8-4-4zm0 72c0-2.2 1.8-4 4-4h40c2.2 0 4 1.8 4 4s-1.8 4-4 4H20c-2.2 0-4-1.8-4-4zm0 72c0-2.2 1.8-4 4-4h40c2.2 0 4 1.8 4 4s-1.8 4-4 4H20c-2.2 0-4-1.8-4-4zm0 72c0-2.2 1.8-4 4-4h40c2.2 0 4 1.8 4 4s-1.8 4-4 4H20c-2.2 0-4-1.8-4-4zm44 20c11 0 20-9 20-20s-9-20-20-20H48v-32h12c11 0 20-9 20-20s-9-20-20-20H48v-32h12c11 0 20-9 20-20s-9-20-20-20H48v-32h12c11 0 20-9 20-20s-9-20-20-20H48v-32h12c11 0 20-9 20-20s-9-20-20-20H48V44c0-8.8 7.2-16 16-16h416c8.8 0 16 7.2 16 16v376c0 8.8-7.2 16-16 16H64c-5.8 0-11.3 1.6-16 4.3V396h12zm420 88h-8v-32h8c5.8 0 11.3-1.6 16-4.3V468c0 8.8-7.2 16-16 16z"/><path class="st0" d="M112 412h352c4.4 0 8-3.6 8-8V60c0-4.4-3.6-8-8-8H112c-4.4 0-8 3.6-8 8v344c0 4.4 3.6 8 8 8zm176-158.6l72 44.3V396h-48v-48c0-4.4-3.6-8-8-8h-32c-4.4 0-8 3.6-8 8v48h-48v-98.3l72-44.3zM120 68h336v328h-80v-88.5l11.8 7.3s.1 0 .1.1c.6.3 1.2.6 1.9.8.1 0 .1 0 .2.1.3.1.5.1.8.2h.3c.3 0 .6.1.9.1.3 0 .6 0 .9-.1h.2c.3 0 .5-.1.7-.1.1 0 .1 0 .2-.1.3-.1.5-.1.8-.2 0 0 .1 0 .1-.1.3-.1.6-.3.9-.4.3-.1.5-.3.7-.5.1-.1.2-.1.2-.2.2-.1.3-.3.5-.4.1-.1.2-.1.3-.2l.6-.6.2-.2c.1-.2.3-.4.4-.6l.1-.1c0-.1.1-.2.1-.2.1-.1.1-.2.2-.3.1-.1.1-.3.2-.4 0-.1.1-.2.1-.3.1-.1.1-.3.2-.4 0-.1.1-.2.1-.3 0-.2.1-.3.1-.5 0-.1 0-.2.1-.3 0-.2.1-.3.1-.5v-33.9c0-.1 0-.3-.1-.4 0-.1 0-.2-.1-.4 0-.1-.1-.2-.1-.4 0-.1-.1-.3-.1-.4 0-.1-.1-.2-.1-.3-.1-.1-.1-.3-.2-.4 0-.1-.1-.2-.2-.3-.1-.1-.1-.2-.2-.4-.1-.1-.1-.2-.2-.3-.1-.1-.1-.2-.2-.3-.1-.1-.2-.2-.2-.3-.1-.1-.1-.2-.2-.3l-.3-.3-.3-.3-.2-.2c-.1-.1-.2-.2-.4-.3l-.2-.2c-.2-.1-.3-.2-.5-.3h-.1l-103.9-64c-2-1.2-4.4-1.6-6.7-.8-.1 0-.1 0-.2.1-.2.1-.3.1-.4.2-.1 0-.2.1-.3.1-.1.1-.2.1-.4.2-.1.1-.2.1-.4.2 0 0-.1 0-.1.1l-104 64c-.1 0-.1.1-.2.1-.1.1-.2.1-.2.2-.1.1-.3.2-.4.3-.1 0-.1.1-.2.1-.2.1-.3.3-.4.4l-.1.1c-.2.2-.3.3-.4.5 0 0 0 .1-.1.1-.1.2-.3.3-.4.5l-.1.1c-.1.2-.2.3-.3.5 0 .1-.1.1-.1.2-.1.2-.2.3-.2.5 0 .1-.1.2-.1.3-.1.2-.1.3-.2.5 0 .1-.1.2-.1.3 0 .2-.1.3-.1.5 0 .1 0 .2-.1.3 0 .2-.1.3-.1.5v33.8c0 .2 0 .3.1.5 0 .1 0 .2.1.3 0 .1.1.3.1.4 0 .1.1.3.1.4 0 .1.1.2.1.3.1.1.1.3.2.4 0 .1.1.2.1.3.1.2.2.3.2.4 0 0 0 .1.1.1 0 0 0 .1.1.1.2.3.3.5.5.8.2.2.4.5.6.7l.2.2c.2.2.4.3.5.4l.2.2c.5.4 1.1.7 1.6.9h.1c.2.1.5.2.8.2.1 0 .1 0 .2.1.2.1.5.1.7.1h.2c.3 0 .6.1.9.1.3 0 .6 0 .9-.1h.3c.3 0 .5-.1.8-.2h.2c.7-.2 1.4-.5 2-.9l.1-.1c.1 0 .1-.1.2-.1l11.5-7.1V396h-80V68z"/><path class="st0" d="M355.2 172H408c17.6 0 32-14.4 32-32s-14.4-32-32-32c-14.9 0-27.4 10.2-31 24h-21.8c-10.6.4-19.2 9.2-19.2 20s8.5 19.5 19.2 20zm52.8-48c8.8 0 16 7.2 16 16s-7.2 16-16 16h-52c-2.2 0-4-1.8-4-4s1.8-4 4-4h28c4.4 0 8-3.6 8-8 0-8.8 7.2-16 16-16zm-192 16c0-13.2-10.8-24-24-24s-24 10.8-24 24 10.8 24 24 24 24-10.8 24-24zm-24-32c4.4 0 8-3.6 8-8v-8c0-4.4-3.6-8-8-8s-8 3.6-8 8v8c0 4.4 3.6 8 8 8zm0 64c-4.4 0-8 3.6-8 8v8c0 4.4 3.6 8 8 8s8-3.6 8-8v-8c0-4.4-3.6-8-8-8zm-33.9-54.6c1.6 1.6 3.6 2.3 5.7 2.3 2 0 4.1-.8 5.7-2.3 3.1-3.1 3.1-8.2 0-11.3l-5.7-5.7c-3.1-3.1-8.2-3.1-11.3 0-3.1 3.1-3.1 8.2 0 11.3l5.6 5.7zm67.9 45.2c-3.1-3.1-8.2-3.1-11.3 0-3.1 3.1-3.1 8.2 0 11.3l5.7 5.7c1.6 1.6 3.6 2.3 5.7 2.3 2 0 4.1-.8 5.7-2.3 3.1-3.1 3.1-8.2 0-11.3l-5.8-5.7zM160 140c0-4.4-3.6-8-8-8h-8c-4.4 0-8 3.6-8 8s3.6 8 8 8h8c4.4 0 8-3.6 8-8zm64 0c0 4.4 3.6 8 8 8h8c4.4 0 8-3.6 8-8s-3.6-8-8-8h-8c-4.4 0-8 3.6-8 8zm-65.9 22.6l-5.7 5.7c-3.1 3.1-3.1 8.2 0 11.3 1.6 1.6 3.6 2.3 5.7 2.3 2 0 4.1-.8 5.7-2.3l5.7-5.7c3.1-3.1 3.1-8.2 0-11.3-3.3-3.1-8.3-3.1-11.4 0zm62.2-42.9c2 0 4.1-.8 5.7-2.3l5.7-5.7c3.1-3.1 3.1-8.2 0-11.3-3.1-3.1-8.2-3.1-11.3 0l-5.7 5.7c-3.1 3.1-3.1 8.2 0 11.3 1.5 1.5 3.5 2.3 5.6 2.3z"/></svg>