<svg version="1.1" id="_x31_" xmlns="http://www.w3.org/2000/svg" x="0" y="0" viewBox="0 0 480 480" xml:space="preserve"><style>.st0{fill:#005e98}</style><path class="st0" d="M448 24H80c-17.7 0-32 14.3-32 32v256H8c-4.4 0-8 3.6-8 8 0 17.7 14.3 32 32 32h232v96c0 4.4 3.6 8 8 8 2.1 0 4.2-.8 5.7-2.3l42.3-42.3 42.3 42.3c1.5 1.5 3.5 2.3 5.7 2.3 1.1 0 2.1-.2 3.1-.6 3-1.2 4.9-4.2 4.9-7.4v-96h24c17.7 0 32-14.3 32-32V64h40c4.4 0 8-3.6 8-8 0-17.7-14.3-32-32-32zM264 336H32c-5.7 0-11-3.1-13.8-8H264v8zm7-83.9l-8.2-14.7 15.3-7c2.5-1.2 4.3-3.6 4.6-6.3l2-16.7 16.5 3.3c2.7.6 5.5-.4 7.4-2.4l11.4-12.4 11.4 12.4c1.9 2.1 4.7 3 7.4 2.4l16.5-3.3 2 16.7c.3 2.8 2.1 5.2 4.6 6.3l15.3 7-8.2 14.7c-1.4 2.4-1.4 5.4 0 7.8l8.2 14.7-15.3 7c-2.5 1.2-4.3 3.6-4.6 6.3l-2 16.7-16.5-3.3c-2.7-.6-5.5.3-7.4 2.4L320 316.2l-11.4-12.4c-1.5-1.6-3.6-2.6-5.9-2.6-.5 0-1 .1-1.6.2l-16.5 3.3-2-16.7c-.3-2.8-2.1-5.2-4.6-6.3l-15.3-7 8.2-14.7c1.5-2.5 1.5-5.5.1-7.9zm54.7 142.2c-3.1-3.1-8.2-3.1-11.3 0L280 428.7V322l19.9-3.9 14.3 15.4c3 3.2 8.1 3.4 11.3.4.2-.1.3-.3.4-.4l14.3-15.4L360 322v106.7l-34.3-34.4zM400 336h-24v-8h37.8c-2.8 4.9-8.1 8-13.8 8zm16-280v256h-40v-19.2l15.8-7.2c4-1.8 5.8-6.6 3.9-10.6l-.3-.6-10.2-18.4 10.3-18.3c2.2-3.9.8-8.7-3-10.9l-.6-.3-19.1-8.7-2.5-20.9c-.5-4.4-4.5-7.5-8.9-7-.2 0-.4.1-.6.1l-20.6 4.1-14.3-15.4c-3.2-3.2-8.4-3.3-11.7-.1l-.1.1-14.2 15.3-20.6-4.1c-4.3-.9-8.5 2-9.4 6.3 0 .2-.1.4-.1.6l-2.5 20.9-19.1 8.8c-4 1.8-5.8 6.6-3.9 10.6l.3.6 10.3 18.3-10.3 18.3c-2.2 3.8-.8 8.7 3 10.9l.6.3 15.8 7.3V312H64V56c0-8.8 7.2-16 16-16h340.4c-2.8 4.8-4.4 10.4-4.4 16z"/><path class="st0" d="M320 296c22.1 0 40-17.9 40-40s-17.9-40-40-40-40 17.9-40 40 17.9 40 40 40zM176 72h128v16H176zm-80 48h288v16H96zm0 32h288v16H96zm8 104h104v16H104z"/></svg>