<svg version="1.1" id="_x31_" xmlns="http://www.w3.org/2000/svg" x="0" y="0" viewBox="0 0 512 512" xml:space="preserve"><style>.st0{fill:#005e98}</style><path class="st0" d="M404.6 371.6v-16.5h82.6c13.7 0 24.8-11.1 24.8-24.8V198.2c0-13.7-11.1-24.8-24.8-24.8H256c-13.7 0-24.8 11.1-24.8 24.8v132.1c0 13.7 11.1 24.8 24.8 24.8h82.6v16.5H198.2v-8.3c0-13.7-11.6-24.8-25.3-24.8H145l-84.8-138c3.7-5.3 5.9-11.8 5.9-18.8 0-2-.2-4-.6-5.9l34.6-63.4c3.2 15.7 11.9 29.7 25.2 39.6l5.4 4 20.4-18.1c4.5 1.6 9 2.5 13.7 2.5 22.8 0 41.3-18.5 41.3-41.3 0-3-.5-6-1.2-9l20.4-18.2-3.4-5.8C210.1 45.7 188.2 33 164.7 33c-1.6 0-3.1.1-4.6.2L132.2 5.3 70.8 56.5l11.4 15.2-54.3 77.5C12.1 151.7 0 165.2 0 181.7c0 12.4 6.9 23.1 17 28.7l68.3 128.2h-28c-13.7 0-24.3 11.1-24.3 24.8v8.3H0v49.5h24.8V512h49.5v-90.8h363.4V512h49.5v-90.8H512v-49.5H404.6zM166.9 123.8l22-19.6c-2.2 10.5-11.1 18.6-22 19.6zm-2.2-74.2c15.4 0 29.8 7.2 39.2 19.3L130 134.4c-9.5-9.3-14.9-21.9-14.9-35.3 0-27.3 22.3-49.5 49.6-49.5zm83 148.6c0-4.6 3.7-8.3 8.3-8.3h231.2c4.6 0 8.3 3.7 8.3 8.3v107.4H247.7V198.2zm8.3 140.4c-4.6 0-8.3-3.7-8.3-8.3V322h247.7v8.3c0 4.6-3.7 8.3-8.3 8.3H256zm132.1 16.5v16.5h-33v-16.5h33zM92.6 85.5l1.9 2.5-38.3 70.1c-2.8-2.8-6.2-5-9.8-6.7l46.2-65.9zM37.8 214.2c3.4-.5 6.6-1.5 9.6-3l78.2 127.3H104L37.8 214.2zm457.7 190.4h-479v-16.5h479v16.5z"/><path class="st0" d="M239.5 140.4h264.3v16.5H239.5zM355.1 0H289v132.1h66.1V0zm-33 107.4c-4.6 0-8.3-3.7-8.3-8.3 0-4.6 3.7-8.3 8.3-8.3 4.6 0 8.3 3.7 8.3 8.3-.1 4.6-3.8 8.3-8.3 8.3zm16.5-41.3h-33V16.5h33v49.6zM429.4 0h-66.1v132.1h66.1V0zm-33 107.4c-4.6 0-8.3-3.7-8.3-8.3 0-4.6 3.7-8.3 8.3-8.3 4.6 0 8.3 3.7 8.3 8.3-.1 4.6-3.8 8.3-8.3 8.3zm16.5-41.3h-33V16.5h33v49.6zM503.7 0h-66.1v132.1h66.1V0zm-33 107.4c-4.6 0-8.3-3.7-8.3-8.3 0-4.6 3.7-8.3 8.3-8.3 4.6 0 8.3 3.7 8.3 8.3 0 4.6-3.7 8.3-8.3 8.3zm16.5-41.3h-33V16.5h33v49.6z"/></svg>