<svg xmlns="http://www.w3.org/2000/svg" viewBox="0 0 512 512"><path d="M487.2 56.5l-.6-1.2v-.1c-1-2.1-2.3-4-3.8-5.8-.3-.4-.6-.8-.9-1.1-1.5-1.6-3.3-3.1-5.4-4.4-.4-.2-.8-.5-1.2-.7-.8-.5-1.6-1-2.5-1.5l-.1.2c-34.1-16.2-112.4 6.4-152.1 19.8l-8.4-3.9C223 17.8 83.1-25.7 63 18.7v.1l-.5 1.2c-27.3 60.5-28 129.1-4.1 189.5-5.7 6.6-10 12.8-12.9 18.6-27.7 10.7-42 23.9-42 39.3v1.4C3.5 402.9 112.6 512 246.7 512s243.2-109.1 243.2-243.2v-1.4c0-3.8-1-7.6-2.8-11.2 28.2-62.8 28.9-135.7.1-199.7zM81.8 27.2c6.4-14.2 90.5-9.6 221.8 49.6 6.1 2.8 12.1 5.6 18.1 8.5 4.9 2.3 9.8 4.7 14.6 7.1 3.5 1.7 6.8 3.5 10.2 5.2 4.7 2.4 9.4 4.8 14 7.3 3.7 2 7.3 4 10.9 6 4 2.2 8 4.4 11.9 6.6 7.3 4.2 14.5 8.5 21.3 12.8-5.6 3.8-11.4 7.8-17.7 11.8-1 .6-2 1.3-3 1.9-1.2.8-2.6 1.6-3.9 2.4-4.8 3-9.7 5.9-14.7 8.9-1.6.9-3.3 1.9-4.9 2.8-5.5 3.1-11.1 6.3-16.9 9.4l-5.1 2.7c-.1.1-.2.1-.3.2-6 3.2-12.1 6.3-18.3 9.4-1.1.6-2.3 1.1-3.4 1.7-16.8-6.4-33.8-13.5-50.5-21C134.6 101.3 75.4 41.4 81.8 27.2zm-10.6 28c29.8 42.4 118.4 93.5 186.2 124.1 11.2 5 22.5 9.8 33.7 14.3-2.5 1.2-4.9 2.3-7.4 3.5-16.1 7.3-32.2 14-47.8 20-.2.1-.4.2-.6.2-7.2 2.8-14.4 5.4-21.4 7.9-3.8 1.3-7.4 2.5-11.1 3.8-3.1 1-6.2 2.1-9.3 3.1-5.7 1.8-11.2 3.5-16.6 5.1-.7.2-1.3.4-2 .6-25.3 7.3-46.8 11.7-64.1 13.9-3.1-1.2-6-2.3-8.5-3.4-4.1-5.8-7.9-12-11.5-18.4l-1.2-2.1c-3.6-6.5-6.9-13.3-9.9-20.2l-.2-.4c-20.3-48-23.4-101.9-8.3-152zm175.5 436.2c-113 0-206.6-84.6-220.8-193.8.6.4 1.5.7 2.2 1.1 2.2 1.2 4.5 2.4 7 3.6 1.4.7 2.9 1.3 4.4 2 3 1.3 6 2.5 9.2 3.7 1.1.4 2.3.8 3.5 1.2 4.2 1.5 8.5 2.8 12.9 4.1.4.1.8.2 1.2.4 5.8 1.6 11.7 3.2 17.6 4.5l2.8.6.5.1c5.1 1.1 10.4 2.2 15.9 3.2h.3c.2 0 .3.1.5.1 1.1.2 2.3.4 3.4.6 4.5.8 9.1 1.6 13.8 2.3 1.8.3 3.6.5 5.4.8 4.3.6 8.6 1.2 13 1.8l5.4.6c4.6.5 9.2 1 14 1.5 1.7.2 3.5.3 5.2.5 4.9.4 9.8.8 14.8 1.2 1.7.1 3.4.2 5.1.4 5.1.3 10.2.6 15.4.9 1.7.1 3.5.2 5.2.3 5.2.2 10.5.4 15.8.5 1.7.1 3.4.1 5.2.2 6.9.1 13.9.2 21 .2 89.2 0 170.3-12.1 211.7-31.6l2.4-1.1 1.6-2.2c.1-.1.1-.2.2-.3 2-2.7 3.9-5.4 5.7-8.2-10.9 112.5-106.1 200.8-221.5 200.8zm238.4-299.7c-.1.5-.2.9-.3 1.4-.7 4-1.4 8-2.3 11.9-.3 1.5-.7 2.9-1.1 4.4-.7 2.9-1.5 5.9-2.3 8.8-.5 1.7-1 3.3-1.5 5-.8 2.7-1.7 5.3-2.6 8-.6 1.7-1.3 3.4-1.9 5.1-1 2.6-2 5.1-3.1 7.7-.7 1.7-1.4 3.4-2.2 5-.7 1.6-1.6 3.2-2.3 4.8-2.3 4.7-4.7 9.3-7.3 13.8-.3.6-.7 1.2-1 1.8-.2.3-.3.6-.5.8-3 5-6.1 10-9.4 14.6-29.3 13.1-80.6 22.6-139.6 26.6-19.7 1.3-40.2 2-61 2-6.8 0-13.5-.1-20.2-.2-1.6 0-3.1-.1-4.7-.1-5.1-.1-10.3-.3-15.4-.5-1.7-.1-3.3-.2-4.9-.2-4.9-.2-9.8-.5-14.6-.8-1.7-.1-3.5-.2-5.2-.4-4.6-.3-9.2-.7-13.7-1.1-1.9-.2-3.8-.3-5.7-.5-4.2-.4-8.3-.8-12.4-1.3-2.1-.2-4.2-.5-6.3-.7-3.7-.4-7.3-.9-10.8-1.4-2.3-.3-4.6-.6-6.9-1-3.3-.5-6.5-1-9.7-1.6-2.3-.4-4.5-.7-6.7-1.1-3.1-.6-6.2-1.2-9.2-1.8-1.7-.3-3.5-.7-5.2-1.1-3.4-4-6.6-8.2-9.7-12.5-1.1-1.5-2.1-3.1-3.1-4.6-2-2.8-3.9-5.6-5.7-8.5-.2-.2-.3-.5-.4-.8 9.4 1 20.4.8 32.4-.5l.5.2 2.4-.3c42.9-5.1 101-22.6 161.8-48.5 6.5-2.8 12.9-5.5 19-8.3 5-2.2 10.1-4.6 15.2-7.1 3.4-1.6 6.8-3.2 10.1-4.8h.1l4-2c1.7-.8 3.3-1.7 5-2.5 2.4-1.2 4.7-2.4 7.1-3.6 4-2 7.9-4.1 11.7-6.1 1.6-.9 3.3-1.7 5-2.6 5.6-3 11.1-6 16.5-9.1.4-.2.8-.5 1.3-.7 4.9-2.8 9.8-5.6 14.5-8.4 1.4-.9 2.8-1.7 4.3-2.6 3.7-2.2 7.3-4.4 10.8-6.7 1.6-1 3.2-2 4.7-3 3.4-2.2 6.6-4.3 9.9-6.5 1.4-.9 2.8-1.9 4.2-2.8 4.4-3 8.7-6.1 12.8-9.1l11.8-8.7-.5-.3c16.1-12.7 29.3-25.4 37.8-37.4 0 .1.1.2.1.3.2.7.4 1.4.6 2.2 1.1 3.7 2.1 7.4 2.9 11.1.3 1.5.6 3 1 4.5.6 2.9 1.2 5.9 1.7 8.8.3 1.7.5 3.5.8 5.2.4 2.8.8 5.6 1.1 8.3.2 1.8.4 3.6.5 5.4.2 2.8.4 5.5.5 8.3.1 1.8.2 3.6.2 5.3.1 2.8 0 5.7 0 8.5 0 1.7 0 3.4-.1 5-.1 3.2-.3 6.3-.6 9.5-.1 1.3-.2 2.7-.3 4-.6 4.6-1.2 9-1.9 13.5z" fill="#005e98"/></svg>