<svg xmlns="http://www.w3.org/2000/svg" viewBox="0 0 512.2 512.2"><path d="M480.5 358.9l29.9-36.7c1.7-2.6 2.6-6.8.9-9.4-1.7-3.4-4.3-5.1-7.7-5.1h-59.7v-25.6c0-5.1-3.4-8.5-8.5-8.5h-55.3c.3-.9.6-1.9.9-2.8 20.9-5 39.4-16.5 52.8-33 6-6.8 11.1-15.4 14.5-23.9l21.7-54.7c.6-.9 1-1.9 1.2-3l12.1-30.7c.8-1.1 1.4-2.5 1.6-4l11.8-29.7c1.1-1.3 1.8-3 1.9-4.9l12.8-32.4c.9-2.6.9-5.1-.9-7.7-1.7-1.7-4.3-3.4-6.8-3.4h-128c-2.6 0-5.1 1.7-6.8 3.4l-35.9 43-71.8-44.9c-3.4-1.7-6.8-1.7-9.4 0l-72.4 45.2-36-43.5c-1.7-2.6-4.3-3.4-6.8-3.4H8.6c-2.6 0-5.1 2.6-6.8 4.3-1.7 1.7-2.6 5.1-.9 7.7l13 32.6c.2 1.2.7 2.3 1.3 3.2l12.5 31.3c.2.9.5 1.7 1 2.5l12.8 32.1c.2.6.4 1.1.6 1.6l22 55.4c3.4 8.5 8.5 17.1 14.5 24.7 13.4 16.6 32 28.1 53 33.1.2.6.4 1.3.6 1.9H76.9c-5.1 0-8.5 3.4-8.5 8.5v25.6H8.6c-3.4 0-6 2.6-7.7 4.3-1.7 3.4-.9 6.8.9 9.4l29.9 37.5-29.9 36.7c-1.7 2.6-2.6 6.8-.9 9.4 1.7 3.4 4.3 5.1 7.7 5.1h93.9c5.1 0 8.5-3.4 8.5-8.5V376h65.8c14.6 23.1 30 44.7 47.7 63.1l25.6 27.3c1.7 1.7 3.4 2.6 6 2.6s4.3-.9 6-2.6l25.6-27.3c17.7-18.5 33.9-39.3 47.9-63.1h65.6v25.6c0 5.1 3.4 8.5 8.5 8.5h93.9c3.4 0 6-1.7 7.7-4.3 1.7-3.4.9-6.8-.9-9.4l-29.9-37.5zM379.8 60.2h110.9L484 77.3h-40.2c-5.1 0-8.5 3.4-8.5 8.5s3.4 8.5 8.5 8.5h33.4l-6.7 17.1h-35.2c-5.1 0-8.5 3.4-8.5 8.5s3.4 8.5 8.5 8.5h28.5l-6.7 17.1h-38.8c-5.1 0-8.5 3.4-8.5 8.5s3.4 8.5 8.5 8.5h32L432.7 207c-3.4 6.8-6.8 13.7-11.9 19.6-8.5 11.1-20.5 19.6-34.1 24.7 5.6-22.8 9.6-45.8 12-68.5 0-.2 0-.3.1-.5.3-2.6.5-5.1.7-7.7.1-.6.1-1.2.2-1.8l.6-8.1c.1-.9.1-1.8.2-2.6.1-1.9.2-3.7.3-5.6.1-1.1.1-2.2.1-3.2.1-1.8.1-3.6.2-5.4 0-.9.1-1.9.1-2.8.1-2.7.1-5.4.1-8.1 0-2.6-1.7-5.1-3.4-6.8l-.1-.1c-.2-.3-.5-.5-.8-.8l-49.5-30.7 32.3-38.4zM92.2 226.6c-5.1-6-9.4-12.8-11.9-19.6l-17.8-44.4H94c5.1 0 8.5-3.4 8.5-8.5s-3.4-8.5-8.5-8.5H55.6l-6.8-17.1h28.1c5.1 0 8.5-3.4 8.5-8.5s-3.4-8.5-8.5-8.5H42l-6.8-17.1h33.2c5.1 0 8.5-3.4 8.5-8.5s-3.4-8.5-8.5-8.5H28.3l-6.8-17.1h110.9l32.3 39.1-49.4 30.9c-2.6.9-4.3 4.3-4.3 6.8 0 2.7 0 5.5.1 8.2 0 .9 0 1.9.1 2.8 0 1.8.1 3.6.2 5.4 0 1.2.1 2.3.1 3.5.1 1.5.2 2.9.2 4.4 1.7 29.8 6.4 60.2 14.1 89.8-13.4-5.2-25.1-13.6-33.6-24.6zm39.6-34.8c-.1-.7-.2-1.3-.2-2-.2-1.5-.4-3.1-.5-4.6-.2-1.5-.3-3-.5-4.4-.1-.8-.2-1.7-.3-2.5-.2-1.8-.3-3.6-.5-5.3-.1-.8-.1-1.6-.2-2.5-.1-1.7-.3-3.3-.4-4.9-.2-2.2-.3-4.3-.4-6.5v-.8c-.3-5.1-.5-10.2-.6-15.2l53.7-34.1c1-.6 1.8-1.3 2.5-2l71.8-45 73.2 45.9c.3.4.7.7 1 1.1l53.8 34.1c0 7.5-.3 15.1-.8 22.8l-.3 4.2c-.1.9-.1 1.9-.2 2.8-2 24.2-6.3 49.1-12.3 73.3l-.6 2.4c-.1.3-.2.6-.2.9-2.1 8.1-4.4 16.1-6.9 24.1h-18.3c13-38.5 21-78.8 22.6-117.8 0-3.4-1.7-6-4.3-7.7l-101.5-64c-3.4-1.7-6.8-1.7-9.4 0l-101.5 64c-2.6 1.7-4.3 4.3-4.3 7.7 2.3 38.1 9.7 79.1 22.6 117.8h-18.3c-9.2-27-15.2-54.6-18.7-81.8zM274.9 428l-18.8 20.5-18.8-20.5c-14.5-15.4-28.2-33.3-40.1-52.1h20.3c10.3 14.8 20.7 28.3 32.6 41 1.7 1.7 3.4 2.6 6 2.6s4.3-.9 7.7-2.6l.9-.9c11.1-11.9 21.5-25.3 31.8-40.1H315c-12.8 19.7-25.6 36.8-40.1 52.1zm55.4-69.1H85.4v-68.3h341.3v68.3h-96.4z" fill="#005e98"/></svg>