<svg xmlns="http://www.w3.org/2000/svg" viewBox="0 0 512 512"><path d="M488.2 345.7L398 214.5l90.2-131.1c1.8-2.6 2-6 .5-8.8-1.5-2.8-4.4-4.5-7.5-4.5H226.3v-34c0-4.7-3.8-8.5-8.5-8.5H39.3v-17c0-4.7-3.8-8.5-8.5-8.5s-8.5 3.8-8.5 8.5v492.8c0 4.7 3.8 8.5 8.5 8.5s8.5-3.8 8.5-8.5V291h118.5v25.5c0 23.4 19.1 42.5 42.5 42.5h280.8c3.2 0 6-1.8 7.5-4.5 1.6-2.9 1.4-6.3-.4-8.8zM39.3 274V44.6h169.9V274H39.3zM203 342c-14.1 0-25.5-11.4-25.5-25.5S188.9 291 203 291h14.8c4.7 0 8.5-3.8 8.5-8.5V87.1H465l-84.3 122.6c-2 2.9-2 6.7 0 9.6L465 342H203z" fill="#005e98"/></svg>