<svg version="1.1" id="_x31_" xmlns="http://www.w3.org/2000/svg" x="0" y="0" viewBox="0 0 512 512" xml:space="preserve"><style>.st0{fill:#005e98}</style><path class="st0" d="M162.1 25.6c-4.7 0-8.5 3.8-8.5 8.5v34.1c0 4.7 3.8 8.5 8.5 8.5s8.5-3.8 8.5-8.5V34.1c.1-4.7-3.8-8.5-8.5-8.5zm-68.2 0c-4.7 0-8.5 3.8-8.5 8.5v34.1c0 4.7 3.8 8.5 8.5 8.5s8.5-3.8 8.5-8.5V34.1c0-4.7-3.8-8.5-8.5-8.5z"/><path class="st0" d="M469.3 221.9H221.9v-111c0-4.7-3.8-8.5-8.5-8.5h-17.1V8.5c0-4.7-3.8-8.5-8.5-8.5H68.3c-4.7 0-8.5 3.8-8.5 8.5v93.9H42.7c-4.7 0-8.5 3.8-8.5 8.5v358.4c0 4.7 3.8 8.5 8.5 8.5h17.1v8.5c0 14.1 11.5 25.6 25.6 25.6h85.3c14.1 0 25.6-11.5 25.6-25.6v-8.5h17.1c4.7 0 8.5-3.8 8.5-8.5v-59.7h247.5c4.7 0 8.5-3.8 8.5-8.5V230.4c0-4.7-3.9-8.5-8.6-8.5zM76.8 17.1h102.4v85.3H76.8V17.1zM51.2 119.5h153.6v102.4H128c-30.6 0-59.3 15-76.8 40.1V119.5zm153.6 341.3H51.2v-91.3c17.5 25.1 46.2 40 76.8 40.1h76.8v51.2zm256-68.3H128c-42.4 0-76.8-34.4-76.8-76.8s34.4-76.8 76.8-76.8h332.8v153.6z"/><path class="st0" d="M85.3 315.7c0 23.6 19.1 42.7 42.7 42.7s42.7-19.1 42.7-42.7-19.1-42.6-42.7-42.7c-23.6.1-42.7 19.2-42.7 42.7zm196.3-25.6H384c4.7 0 8.5-3.8 8.5-8.5s-3.8-8.5-8.5-8.5H281.6c-4.7 0-8.5 3.8-8.5 8.5s3.8 8.5 8.5 8.5zm0 68.3H384c4.7 0 8.5-3.8 8.5-8.5s-3.8-8.5-8.5-8.5H281.6c-4.7 0-8.5 3.8-8.5 8.5s3.8 8.5 8.5 8.5z"/></svg>