<svg version="1.1" id="_x31_" xmlns="http://www.w3.org/2000/svg" x="0" y="0" viewBox="0 0 512 512" xml:space="preserve"><style>.st0{fill:#005e98}</style><path class="st0" d="M469.5 73.4l-37.2-8.3V39c0-4.2-3.4-7.5-7.5-7.5h-36.6L383 6.9c-.9-4-4.9-6.7-8.9-5.8L256.9 26.2 140 .2c-4.1-.9-8.1 1.7-9 5.7l-5.7 25.6H87.2c-4.2 0-7.5 3.4-7.5 7.5v25.1L44 71.8c-4 .9-6.6 4.9-5.8 8.9l37.4 174.6-38.8 174.3c-.9 4.1 1.7 8.1 5.7 9l37.2 8.3V473c0 4.2 3.4 7.5 7.5 7.5h36.6l5.3 24.6c.9 4 4.9 6.7 8.9 5.8 0 0 115.9-24.9 116.5-25.2L372 511.8c4 .9 8.1-1.7 9-5.7l5.7-25.6h38.1c4.2 0 7.5-3.4 7.5-7.5v-25.1l35.7-7.7c4-.9 6.7-4.9 5.8-8.9l-37.4-174.6 38.7-174.3c1-4-1.5-8.1-5.6-9zm-389.8 358l-26.5-5.9 26.5-119.4v125.3zm0-228.7L54.5 84.9l25.2-5.4v123.2zM369.8 17.4l3 14.1h-68.6l65.6-14.1zM144 16.5l67.2 14.9h-70.5l3.3-14.9zm-1.8 478.1l-3-14.1h68.6l-65.6 14.1zm225.8.9l-67.2-14.9h70.5l-3.3 14.9zm49.3-30H94.7v-419h322.5v419zm40.2-38.4l-25.2 5.4V309.3l25.2 117.8zm-25.2-221.2V80.6l26.5 5.9-26.5 119.4z"/><path class="st0" d="M361.9 328.3l20.7-27.6c1.7-2.3 2-5.3.7-7.9-1.3-2.6-3.9-4.2-6.7-4.2H135.4c-6.1 0-9.7 7.2-6 12.1l20.7 27.6-20.7 27.7c-3.7 4.9-.1 12.1 6 12.1h241.1c6.1 0 9.7-7.2 6-12.1l-20.6-27.7zm-9.4 56.8H159.6c-4.2 0-7.5 3.4-7.5 7.5s3.4 7.5 7.5 7.5h192.9c4.2 0 7.5-3.4 7.5-7.5s-3.4-7.5-7.5-7.5zm0 32.2H159.6c-4.2 0-7.5 3.4-7.5 7.5s3.4 7.5 7.5 7.5h192.9c4.2 0 7.5-3.4 7.5-7.5s-3.4-7.5-7.5-7.5zM252.1 254.4c2.4 1.4 5.5 1.4 7.8 0 2.6-1.6 65.2-40 91-82.9 14.7-24.5 6.8-62.2-17.4-82.4-10.8-9-23.6-13.4-37.1-12.6-13.4.8-27 6.5-40.4 17-13.4-10.5-27-16.2-40.4-17-13.5-.8-26.3 3.6-37.1 12.6-24.1 20.2-32.1 57.9-17.4 82.4 25.8 42.9 88.3 81.3 91 82.9z"/></svg>