<svg xmlns="http://www.w3.org/2000/svg" viewBox="0 0 512 512"><linearGradient id="a" gradientUnits="userSpaceOnUse" x1="256" y1="106.004" x2="256" y2="410.002"><stop offset="0" stop-color="#fdb620"/><stop offset="1" stop-color="#f8931f"/></linearGradient><path d="M501.3 117.3c-83.8 0-130.2 21.4-132.2 22.3-2.8 1.3-4.8 3.7-5.7 6.6-.7 2.6-.5 5.3.6 7.7-16.1-6.1-38.6-15-61.1-25.1-38.5-17.2-63.3-11.9-90.8 9.8h-85.3c.5-3.4.8-6.7 1.1-9.7.3-3.2-.9-6.4-3.3-8.7C106.4 102.9 33.3 97.3 11.3 96c-3-.1-5.8.9-8 2.9-2.1 2-3.3 4.8-3.3 7.8v192c0 5.9 4.8 10.7 10.7 10.7h64c4.6 0 8.7-3 10.1-7.4.2-.7 1.1-3.4 2.5-7.8 2.4 2.5 5.1 5.3 7.9 8.2 9.5 9.9 19.3 20.2 26 25.8 39.7 33.3 87.5 69.2 97 75.4 7.9 5.2 24.8 12.4 37.9 12.4 10.5 0 18.6-2.4 24.2-7.1 7.5 2.9 16 2.9 24.3-.3 9.7-3.8 17.7-11.3 22.2-20.5 8.4 1.8 18 .5 26.8-3.9 8.6-4.3 14.7-10.9 17.8-18.6 8.5.4 17.2-2.6 24.5-8.8 9.8-8.3 13.9-20.4 11.6-32.4l16.9-11.3c1.2 3.8 2.2 7.1 2.9 9.7 1.3 4.6 5.5 7.8 10.3 7.8h64c5.9 0 10.7-4.8 10.7-10.7V128c-.3-5.9-5.1-10.7-11-10.7zM381.9 340.6c-4.1 3.5-9.5 4.7-12.7 2.8-7.9-6.4-41.8-41-62.7-62.9-4.1-4.3-10.8-4.4-15.1-.3-4.3 4.1-4.4 10.8-.3 15.1 4.9 5.2 44.8 46.7 60.8 61.3-1.2 4.6-5.7 7.4-7.9 8.5-6.8 3.4-13.9 2.9-16.6.4l-.6-.6c-12.8-10.2-44.9-44.3-52.1-52.2-4-4.4-10.7-4.6-15.1-.6-4.3 4-4.6 10.8-.6 15.1.3.4 31.6 34.2 49.4 50-2 5.1-6.2 9.4-11.4 11.4-3.3 1.2-8 2-12.2-1.9l-.3-.3c-15.2-12.8-46.3-46-52.4-52.5-4-4.3-10.8-4.5-15.1-.5-4.3 4-4.5 10.8-.5 15.1 7.2 7.7 28.7 30.6 44.9 45.8-1.4.2-3 .3-5.1.3-7.1 0-19.9-4.8-26.1-8.9-7.5-4.9-54.4-40-95-73.9-5.7-4.8-15.6-15.1-24.3-24.2-6.4-6.6-12.3-12.8-16.2-16.4 8.9-29.4 21.8-74.5 28.9-111.2H189c-14.6 14.7-34.2 44-29.1 65.6 2.2 9.2 8.7 16 18.3 19.2 24.2 8 46.2.3 62.7-21.5 6.8-1 10.5-2.6 16-5.1 2-.9 4.4-1.9 7.5-3.2 12.2 11.5 28.7 24.8 46 38.8 31.4 25.4 66.9 54.1 74.9 70.8 3.7 8.2-.6 13.6-3.4 16zm16-35.4c-14.7-19.7-44.9-44.1-74.3-67.9-19.4-15.7-37.7-30.5-49.3-42.1-2.9-2.9-7.3-3.9-11.2-2.5-7.2 2.6-11.6 4.6-15.1 6.2-5.3 2.4-7.1 3.2-14.3 3.9-3.2.3-6 2-7.8 4.7-15.1 22.5-30.7 20.6-41.1 17.1-3.3-1.1-3.9-2.5-4.2-3.9-2.2-9.4 9-31.2 23.6-45.7 34.7-34.7 52.5-43.4 90.3-26.5 35.7 16 71.5 29.1 82.7 33.1 12.5 30.4 29.4 77.8 40.4 110.6l-19.7 13z" fill="url(#a)"/></svg>