<svg version="1.1" id="Слой_1" xmlns="http://www.w3.org/2000/svg" x="0" y="0" viewBox="0 0 512 512" xml:space="preserve"><style>.st0{fill:#005e98}</style><path class="st0" d="M503.4 213.3c1.2 0 2.5-.3 3.6-.8 2.9-1.4 4.7-4.3 4.7-7.5v-44.2c0-2.5-1.2-4.9-3.2-6.5L373.7 48.1c-9.5-7.5-22.7-7.5-32.1 0l-50.8 40V72.5c0-4.6-3.7-8.3-8.3-8.3h-35.3c-4.6 0-8.3 3.7-8.3 8.3V129l-32.2 25.4c-2 1.6-3.2 4-3.2 6.5V205c0 3.2 1.8 6.1 4.7 7.5 2.9 1.4 6.2 1 8.7-.9l4.3-3.4v80.7L144 228c-9.5-7.5-22.7-7.5-32.1 0L3.5 313.4c-2 1.6-3.2 4-3.2 6.5V364c0 3.2 1.8 6.1 4.7 7.5 1.1.6 2.4.8 3.6.8 1.8 0 3.6-.6 5.1-1.8l4.3-3.4v85.8H8.6c-4.6 0-8.3 3.7-8.3 8.3 0 4.6 3.7 8.3 8.3 8.3h494.8c4.6 0 8.3-3.7 8.3-8.3 0-4.6-3.7-8.3-8.3-8.3H494V208.2l4.3 3.4c1.4 1.1 3.3 1.7 5.1 1.7zM168.2 452.9H87.6v-18.8h80.6v18.8zm0-35.3H87.6v-18.8h80.6v18.8zm0-35.3H87.6v-18.8h80.6v18.8zm53 70.6h-36.4v-97.7c0-4.6-3.7-8.3-8.3-8.3H79.3c-4.6 0-8.3 3.7-8.3 8.3v97.7H34.6v-98.8l93.3-73.5 93.3 73.5v98.8zm106-61.8h-.6c-2.2 0-4.3.9-5.9 2.4-1.5 1.5-2.4 3.7-2.4 5.9s.9 4.3 2.4 5.9c1.5 1.5 3.7 2.4 5.9 2.4h.6V453h-36.4V345.8h36.4v45.3zm150.2 61.8H343.8V337.5c0-4.6-3.7-8.3-8.3-8.3h-53c-4.6 0-8.3 3.7-8.3 8.3v115.4h-36.4V195.1l119.8-94.4 119.8 94.4v257.8z"/><path class="st0" d="M379.7 416.5h53c4.6 0 8.3-3.7 8.3-8.3v-70.7c0-4.6-3.7-8.3-8.3-8.3h-53c-4.6 0-8.3 3.7-8.3 8.3v70.7c0 4.6 3.7 8.3 8.3 8.3zm8.3-70.7h36.4v9.9H388v-9.9zm0 26.5h36.4v27.6H388v-27.6zm-8.3-79.5h53c4.6 0 8.3-3.7 8.3-8.3v-70.7c0-4.6-3.7-8.3-8.3-8.3h-53c-4.6 0-8.3 3.7-8.3 8.3v70.7c0 4.6 3.7 8.3 8.3 8.3zm8.3-70.7h36.4v9.9H388v-9.9zm0 26.5h36.4v27.6H388v-27.6zm-52.5-43h-53c-4.6 0-8.3 3.7-8.3 8.3v70.7c0 4.6 3.7 8.3 8.3 8.3h53c4.6 0 8.3-3.7 8.3-8.3v-70.7c0-4.6-3.7-8.3-8.3-8.3zm-8.3 70.6h-36.4v-27.6h36.4v27.6zm0-44.1h-36.4v-9.9h36.4v9.9z"/></svg>