<svg version="1.1" id="_x31_" xmlns="http://www.w3.org/2000/svg" x="0" y="0" viewBox="0 0 512 512" xml:space="preserve"><style>.st0{fill:#005e98}</style><path class="st0" d="M0 508.3h255.9V244.4H0v263.9zm264.2-263.9v135.8H512V244.4H264.2zM56.9 188.9h15.7v15.7H56.9z"/><path class="st0" d="M239.8 220.1h-24.1v-95.3H95.3v38.8H111v-23h89v79.6H95.8c5-6.7 8-14.9 8-23.9 0-22-17.9-39.9-39.9-39.9S24 174.2 24 196.2c0 9 3 17.2 8 23.9H15.6v15.7h224.2v-15.7zm-172.3 0h-7.2c-11.6-1.8-20.5-11.8-20.5-23.9 0-13.3 10.8-24.2 24.2-24.2 13.3 0 24.2 10.8 24.2 24.2-.2 12.1-9.1 22.2-20.7 23.9z"/><path class="st0" d="M120.9 156.5H145v15.7h-24.1zm47.1 0h24.1v15.7H168zm-47.1 32.4H145v15.7h-24.1zm47.1 0h24.1v15.7H168zm-8.1-151.5c14.5 28.3 32.2 66.6 32.2 79.2h15.7c0-24.1-36.8-92.2-41-100l-6.9-12.9-6.9 12.9c-4.2 7.7-41 75.9-41 100h15.7c.1-12.5 17.7-50.9 32.2-79.2z"/><path class="st0" d="M136.1 116.6h15.7c0-5.2 3.7-8.2 8.2-8.2 4.5 0 8.2 2.9 8.2 8.2h15.7c0-13.6-10.7-23.9-23.9-23.9-13.2.1-23.9 10.3-23.9 23.9z"/></svg>