<svg version="1.1" id="_x31_" xmlns="http://www.w3.org/2000/svg" x="0" y="0" viewBox="0 0 512 512" xml:space="preserve"><style>.st0{fill:#005e98}</style><path class="st0" d="M488 220.5H368v-154c0-13.2-10.8-24-24-24H24c-13.2 0-24 10.8-24 24v188c0 13.2 10.8 24 24 24h120v154c0 13.2 10.8 24 24 24h320c13.2 0 24-10.8 24-24v-188c0-13.2-10.8-24-24-24zm-136-154v154h-35.3l-73.6-77.3 106.3-82.6c1.6 1.4 2.6 3.6 2.6 5.9zm-336 188v-188c0-1.1.2-2.1.6-3l105.1 80L17.3 258.9c-.8-1.3-1.3-2.8-1.3-4.4zm152-34c-13.2 0-24 10.8-24 24v18H33.2L133 152.2l49.8 37.9 49.1-38.2 65.3 68.6H168zm328 212c0 4.4-3.6 8-8 8H168c-4.4 0-8-3.6-8-8v-188c0-4.4 3.6-8 8-8h320c4.4 0 8 3.6 8 8v188z"/><path class="st0" d="M321.3 410.5H190.8c-4.4 0-8 3.6-8 8s3.6 8 8 8h130.5c4.4 0 8-3.6 8-8s-3.6-8-8-8zm0-28H190.8c-4.4 0-8 3.6-8 8s3.6 8 8 8h130.5c4.4 0 8-3.6 8-8s-3.6-8-8-8zm0-28H190.8c-4.4 0-8 3.6-8 8s3.6 8 8 8h130.5c4.4 0 8-3.6 8-8s-3.6-8-8-8zM468.5 256h-49c-3.6 0-6.5 2.9-6.5 6.5V320c0 3.6 2.9 6.5 6.5 6.5h49c3.6 0 6.5-2.9 6.5-6.5v-57.5c0-3.6-2.9-6.5-6.5-6.5z"/></svg>