<svg version="1.1" id="_x31_" xmlns="http://www.w3.org/2000/svg" x="0" y="0" viewBox="0 0 512 512" xml:space="preserve"><style>.st0{fill:#005e98}</style><path class="st0" d="M405.7 0H72.1v461.9h34.2V512l34.2-22.8 34.2 22.8v-50.2h230.9c18.9 0 34.2-15.3 34.2-34.2V34.2C439.9 15.3 424.5 0 405.7 0zm-77 444.7H89.2V316.5h239.5v128.2zm0-256.6c-4.7 0-8.6 3.8-8.6 8.6s3.8 8.6 8.6 8.6v34.2c-4.7 0-8.6 3.8-8.6 8.6 0 4.7 3.8 8.6 8.6 8.6v34.2c-4.7 0-8.6 3.8-8.6 8.6v.1h-34.2v-.1c0-4.8-3.8-8.6-8.6-8.6-4.7 0-8.6 3.8-8.6 8.6v.1h-34.2v-.1c0-4.8-3.8-8.6-8.6-8.6s-8.6 3.8-8.6 8.6v.1h-34.2v-.1c0-4.8-3.8-8.6-8.6-8.6-4.7 0-8.6 3.8-8.6 8.6v.1H132v-.1c0-4.8-3.8-8.6-8.6-8.6-4.7 0-8.6 3.8-8.6 8.6v.1H89.2V162.5h8.1c-4.5.2-8.1 3.9-8.1 8.5 0 4.7 3.8 8.6 8.6 8.6 4.7 0 8.6-3.8 8.6-8.6 0-4.6-3.6-8.2-8.1-8.5h50.4c-4.5.2-8.1 3.9-8.1 8.5 0 4.7 3.8 8.6 8.6 8.6 4.7 0 8.6-3.8 8.6-8.6 0-4.6-3.6-8.2-8.1-8.5H200c-4.5.2-8.1 3.9-8.1 8.5 0 4.7 3.8 8.6 8.6 8.6 4.7 0 8.6-3.8 8.6-8.6 0-4.6-3.6-8.2-8.1-8.5h50.4c-4.5.2-8.1 3.9-8.1 8.5 0 4.7 3.8 8.6 8.6 8.6 4.7 0 8.6-3.8 8.6-8.6 0-4.6-3.6-8.2-8.1-8.5h50.4c-4.5.2-8.1 3.9-8.1 8.5 0 4.7 3.8 8.6 8.6 8.6 4.7 0 8.6-3.8 8.6-8.6 0-4.6-3.6-8.2-8.1-8.5H329v25.6zm0-42.6H89.2V17.1h239.5v128.4zm94.1 282.1c0 9.4-7.7 17.1-17.1 17.1h-17.1V316.5h34.2v111.1zm0-128.2h-34.2V162.6h16.7c-4.5.2-8.1 3.9-8.1 8.5 0 4.7 3.8 8.6 8.6 8.6 4.7 0 8.6-3.8 8.6-8.6 0-4.6-3.6-8.2-8.1-8.5H423v136.8zm0-153.9h-34.2V17.1h17.1c9.4 0 17.1 7.7 17.1 17.1v111.3z"/><circle class="st0" cx="123.4" cy="196.7" r="8.6"/><ellipse transform="rotate(-9.213 174.74 196.651)" class="st0" cx="174.7" cy="196.7" rx="8.6" ry="8.6"/><ellipse transform="rotate(-67.5 226.054 196.682)" class="st0" cx="226.1" cy="196.7" rx="8.6" ry="8.6"/><circle class="st0" cx="277.4" cy="196.7" r="8.6"/><ellipse transform="rotate(-45.001 97.765 222.347)" class="st0" cx="97.8" cy="222.3" rx="8.6" ry="8.6"/><circle class="st0" cx="149.1" cy="222.3" r="8.6"/><ellipse transform="rotate(-9.213 97.781 273.625)" class="st0" cx="97.8" cy="273.7" rx="8.6" ry="8.6"/><circle class="st0" cx="149.1" cy="273.7" r="8.6"/><circle class="st0" cx="123.4" cy="248" r="8.6"/><ellipse transform="rotate(-45.001 174.74 248.006)" class="st0" cx="174.7" cy="248" rx="8.6" ry="8.6"/><ellipse transform="rotate(-45.001 200.398 222.348)" class="st0" cx="200.4" cy="222.3" rx="8.6" ry="8.6"/><circle class="st0" cx="251.7" cy="222.3" r="8.6"/><ellipse transform="rotate(-67.5 200.397 273.655)" class="st0" cx="200.4" cy="273.7" rx="8.6" ry="8.6"/><circle class="st0" cx="251.7" cy="273.7" r="8.6"/><ellipse transform="rotate(-13.286 226.003 247.957)" class="st0" cx="226.1" cy="248" rx="8.6" ry="8.6"/><circle class="st0" cx="277.4" cy="248" r="8.6"/><ellipse transform="rotate(-13.286 302.964 222.308)" class="st0" cx="303" cy="222.3" rx="8.6" ry="8.6"/><ellipse transform="rotate(-9.213 303.025 273.607)" class="st0" cx="303" cy="273.7" rx="8.6" ry="8.6"/><ellipse transform="rotate(-13.286 405.576 222.311)" class="st0" cx="405.7" cy="222.3" rx="8.6" ry="8.6"/><ellipse transform="rotate(-9.213 405.647 273.598)" class="st0" cx="405.7" cy="273.7" rx="8.6" ry="8.6"/></svg>