<svg xmlns="http://www.w3.org/2000/svg" viewBox="0 0 512 512"><path d="M174.5 45.7v-14c0-17.5-14.2-31.7-31.7-31.7s-31.7 14.2-31.7 31.7v448.6c0 17.5 14.2 31.7 31.7 31.7s31.7-14.2 31.7-31.7V57c4.5 0 8.2 3.7 8.2 8.2v92.3c0 3.1 2.5 5.7 5.7 5.7s5.7-2.5 5.7-5.7V65.3c0-10.8-8.8-19.6-19.6-19.6zM125.7 33c0-9.5 7.7-17.2 17.2-17.2s17.2 7.7 17.2 17.2v160.9h-34.3V33zM160 467h-34.3V209H160v258zM278.8 45.7v-14c0-17.5-14.2-31.7-31.7-31.7s-31.7 14.2-31.7 31.7v448.6c0 17.5 14.2 31.7 31.7 31.7s31.7-14.2 31.7-31.7V57c4.5 0 8.2 3.7 8.2 8.2v92.3c0 3.1 2.5 5.7 5.7 5.7s5.7-2.5 5.7-5.7V65.3c-.1-10.8-8.9-19.6-19.6-19.6zM229.9 33c0-9.5 7.7-17.2 17.2-17.2s17.2 7.7 17.2 17.2v160.9H230V33zm34.3 434h-34.3V209h34.3v258zM383 45.7v-14C383 14.2 368.8 0 351.3 0s-31.7 14.2-31.7 31.7v448.6c0 17.5 14.2 31.7 31.7 31.7s31.7-14.2 31.7-31.7V57c4.5 0 8.2 3.7 8.2 8.2v92.3c0 3.1 2.5 5.7 5.7 5.7s5.7-2.5 5.7-5.7V65.3c0-10.8-8.8-19.6-19.6-19.6zM334.2 33c0-9.5 7.7-17.2 17.2-17.2s17.2 7.7 17.2 17.2v160.9h-34.3V33zm34.3 434h-34.3V209h34.3v258z" fill="#005e98"/></svg>