<svg version="1.1" id="_x31_" xmlns="http://www.w3.org/2000/svg" x="0" y="0" viewBox="0 0 512 512" xml:space="preserve"><style>.st0{fill:#005e98}</style><path class="st0" d="M290.6 336.9L200 427.4c-3.3 3.3-3.3 8.7 0 12.1 1.7 1.7 3.8 2.5 6 2.5s4.4-.8 6-2.5l90.5-90.5c3.3-3.3 3.3-8.7 0-12.1s-8.6-3.3-11.9 0zm30.1-30.2c-1.5 1.6-2.5 3.8-2.5 6.1 0 2.2.9 4.4 2.5 6.1 1.6 1.5 3.8 2.5 6.1 2.5s4.5-.9 6.1-2.5c1.5-1.6 2.5-3.7 2.5-6.1 0-2.3-.9-4.5-2.5-6.1-3.2-3.2-9.1-3.2-12.2 0zm-72.4-72.4c3.3-3.3 3.3-8.7 0-12.1-3.3-3.3-8.7-3.3-12.1 0l-90.5 90.5c-3.3 3.3-3.3 8.7 0 12.1 1.7 1.7 3.8 2.5 6 2.5s4.4-.8 6-2.5l90.6-90.5zm-30.2 102.6c1.7 1.7 3.8 2.5 6 2.5s4.4-.8 6-2.5l60.3-60.3c3.3-3.3 3.3-8.7 0-12.1-3.3-3.3-8.7-3.3-12.1 0L218 324.8c-3.2 3.4-3.2 8.8.1 12.1zm-48.2 36.2l-12.1 12.1c-3.3 3.3-3.3 8.7 0 12.1 1.7 1.7 3.8 2.5 6 2.5s4.4-.8 6-2.5l12.1-12.1c3.3-3.3 3.3-8.7 0-12.1-3.3-3.3-8.7-3.3-12 0zm6-162.9c-3.3-3.3-8.7-3.3-12.1 0l-90.5 90.5c-3.3 3.3-3.3 8.7 0 12.1 1.7 1.7 3.8 2.5 6 2.5s4.4-.8 6-2.5l90.5-90.5c3.4-3.4 3.4-8.8.1-12.1zm24.1-15.6c2.3 0 4.4-.9 6.1-2.5 1.5-1.6 2.5-3.8 2.5-6.1s-.9-4.5-2.5-6.1c-3.1-3.2-9-3.2-12 0-1.6 1.6-2.6 3.8-2.6 6.1 0 2.2.9 4.4 2.5 6.1 1.6 1.5 3.8 2.5 6 2.5zm-78.4 142.3c-1.6 1.5-2.5 3.8-2.5 6.1 0 2.2.9 4.4 2.5 6 1.6 1.6 3.7 2.6 6.1 2.6 2.2 0 4.4-.9 6.1-2.6 1.5-1.6 2.5-3.7 2.5-6s-.9-4.4-2.6-6.1c-3.2-3.2-8.9-3.2-12.1 0zm84.5 24.2c1.6-1.6 2.5-3.8 2.5-6.1 0-2.2-.9-4.4-2.5-6.1-3.1-3.2-9-3.2-12.1 0-1.5 1.6-2.5 3.8-2.5 6.1 0 2.2.9 4.4 2.5 6.1 1.6 1.5 3.8 2.5 6.1 2.5 2.2-.1 4.4-1 6-2.5z"/><path class="st0" d="M483.3 46.9l24.3-33.3c2.6-3.5 1.8-8.4-1.7-11-.4-.3-.8-.5-1.3-.8-3.4-2.7-8.3-2.5-11.4.6L461.6 34H262.9L13.1 286c-5.7 5.7-8.8 13.3-8.8 21.3s3.1 15.6 8.8 21.3l174.6 174.6c5.9 5.9 13.6 8.8 21.3 8.8 7.7 0 15.5-3 21.4-8.9l243.2-249.8-219.5 225.5 34.3 25c6.2 4.5 13.6 6.1 20.6 5 7-1.1 13.7-4.9 18.2-11.1l185.7-262.1-29.6-188.7zm-26.8 199.5L218.2 491.1c-5.1 5.1-13.4 5.1-18.4 0L25.1 316.5c-5.1-5.1-5.1-13.4 0-18.5L270 51.2h174.5l-41.2 41.2c-6.8-4.5-14.8-7.1-23.5-7.1-23.5 0-42.7 19.1-42.7 42.7s19.1 42.7 42.7 42.7 42.7-19.1 42.7-42.7c0-8.7-2.6-16.7-7.1-23.5l41.2-41.2v183.1zM373.7 134c1.7 1.7 3.8 2.5 6 2.5s4.4-.8 6-2.5l17-17c1.6 3.3 2.6 7 2.6 11 0 14.1-11.5 25.6-25.6 25.6-14.1 0-25.6-11.5-25.6-25.6 0-14.1 11.5-25.6 25.6-25.6 3.9 0 7.6 1 11 2.6l-17 17c-3.3 3.3-3.3 8.7 0 12z"/></svg>