<svg xmlns="http://www.w3.org/2000/svg" viewBox="0 0 512 512"><linearGradient id="a" gradientUnits="userSpaceOnUse" x1="46.68" y1="113.598" x2="46.68" y2="382.235"><stop offset="0" stop-color="#fdb620"/><stop offset="1" stop-color="#f8931f"/></linearGradient><path d="M54.5 133.9H38.9c-4.3 0-7.8 3.5-7.8 7.8s3.5 7.8 7.8 7.8h15.6c4.3 0 7.8-3.5 7.8-7.8s-3.5-7.8-7.8-7.8z" fill="url(#a)"/><linearGradient id="b" gradientUnits="userSpaceOnUse" x1="93.362" y1="113.598" x2="93.362" y2="382.235"><stop offset="0" stop-color="#fdb620"/><stop offset="1" stop-color="#f8931f"/></linearGradient><path d="M85.6 149.4h15.6c4.3 0 7.8-3.5 7.8-7.8s-3.5-7.8-7.8-7.8H85.6c-4.3 0-7.8 3.5-7.8 7.8s3.5 7.8 7.8 7.8z" fill="url(#b)"/><linearGradient id="c" gradientUnits="userSpaceOnUse" x1="256" y1="113.598" x2="256" y2="382.235"><stop offset="0" stop-color="#fdb620"/><stop offset="1" stop-color="#f8931f"/></linearGradient><path d="M507.8 269.3h.1c2.4-.8 4.1-3 4.1-5.7 0-3.3-2.7-6-6-6-.7 0-1.3.1-1.9.3l-27.9 9.3v-29.1l31.6-10.5h.1c2.4-.8 4.1-3 4.1-5.6 0-3.3-2.7-6-6-6-.7 0-1.3.1-1.9.3l-27.9 9.3v-39.4h11.9v-83.4h-457C14 102.7 0 116.7 0 133.9V375c0 4.3 3.5 7.8 7.8 7.8h31.1c4.3 0 7.8-3.5 7.8-7.8V242.8h31.1v77.8c0 17.2 12.6 31.1 28 31.1h132.1v25.2h11.9c0 3.3 2.7 6 6 6h23.8c3.3 0 6-2.7 6-6H327c.8 3.4 3.9 6 7.6 6h31.1c3.7 0 6.7-2.5 7.6-6h55.3c0 3.3 2.7 6 6 6h23.8c3.3 0 6-2.7 6-6h11.9v-55.3l31.6-10.5h.1c2.4-.8 4.1-3 4.1-5.6 0-3.3-2.7-6-6-6-.7 0-1.3.1-1.9.3l-27.9 9.3V280l31.5-10.7zm-141-154.6h109.4v11.9H254c4-3.5 8.4-6.3 13.2-8.3 5.7-2.4 11.9-3.6 18.3-3.6h81.3zM31.1 367.3H15.6V242.8h15.6v124.5zM70 211.6h7.8v15.6H15.6v-93.4c0-8.6 7-15.6 15.6-15.6h214.3c-11.9 10.9-19.4 26.6-19.4 44V186H238v9.9H70c-4.3 0-7.8 3.5-7.8 7.8 0 4.5 3.5 7.9 7.8 7.9zm35.8 124.5c-6.9 0-12.4-7-12.4-15.6V211.6h144.5v31.1H132.3c-4.3 0-7.8 3.5-7.8 7.8s3.5 7.8 7.8 7.8h105.6v31.1H132.3c-4.3 0-7.8 3.5-7.8 7.8s3.5 7.8 7.8 7.8h105.6v31.1H105.8zm358.5 28.8H249.6v-83.4h83.5c0 3.3 2.7 6 6 6h35.8c3.3 0 6-2.7 6-6h83.4v83.4zm0-95.3H249.6v-83.4h83c0 3.3 2.7 6 6 6h35.8c3.3 0 6-2.7 6-6h83.8v83.4zm-90.9-95.4H237.8v-11.9c0-8.5 2.2-16.7 6.4-23.8h232v35.8H373.4z" fill="url(#c)"/><linearGradient id="d" gradientUnits="userSpaceOnUse" x1="458.371" y1="113.598" x2="458.371" y2="382.235"><stop offset="0" stop-color="#fdb620"/><stop offset="1" stop-color="#f8931f"/></linearGradient><path d="M458.4 150.4c-3.3 0-6 2.7-6 6s2.7 6 6 6 6-2.7 6-6c-.1-3.3-2.7-6-6-6z" fill="url(#d)"/><linearGradient id="e" gradientUnits="userSpaceOnUse" x1="434.532" y1="113.598" x2="434.532" y2="382.235"><stop offset="0" stop-color="#fdb620"/><stop offset="1" stop-color="#f8931f"/></linearGradient><path d="M434.5 150.4c-3.3 0-6 2.7-6 6s2.7 6 6 6 6-2.7 6-6-2.7-6-6-6z" fill="url(#e)"/><linearGradient id="f" gradientUnits="userSpaceOnUse" x1="410.701" y1="113.598" x2="410.701" y2="382.235"><stop offset="0" stop-color="#fdb620"/><stop offset="1" stop-color="#f8931f"/></linearGradient><path d="M410.7 150.4c-3.3 0-6 2.7-6 6s2.7 6 6 6 6-2.7 6-6-2.7-6-6-6z" fill="url(#f)"/></svg>