<svg xmlns="http://www.w3.org/2000/svg" viewBox="0 0 512 512"><linearGradient id="a" gradientUnits="userSpaceOnUse" x1="42.221" y1="102" x2="42.221" y2="417.002"><stop offset="0" stop-color="#fdb620"/><stop offset="1" stop-color="#f8931f"/></linearGradient><path d="M50.2 256v-58c0-4.4-3.6-8-8-8s-8 3.6-8 8v57.7c0 4.3 3.2 8 7.5 8.3 4.7.3 8.5-3.4 8.5-8z" fill="url(#a)"/><linearGradient id="b" gradientUnits="userSpaceOnUse" x1="256" y1="102" x2="256" y2="417.002"><stop offset="0" stop-color="#fdb620"/><stop offset="1" stop-color="#f8931f"/></linearGradient><path d="M476.2 231.4l-13.3-53c3.6-.8 6.3-4 6.3-7.8V162c0-18.6-15.1-33.7-33.7-33.7h-60.4v-17.6c0-9.2-7.4-16.6-16.6-16.6H50.8c-9.2 0-16.6 7.4-16.6 16.6v6.4c0 4.4 3.6 8 8 8s8-3.6 8-8v-6.4c0-.3.2-.5.5-.5h307.8c.3 0 .5.2.5.5v145.1c0 4.3 3.2 8 7.5 8.3 4.7.3 8.6-3.4 8.6-8V247h94.6c11.6 0 21.5 7.6 24.9 18.2h-24.9c-4.4 0-8 3.6-8 8v17.1c0 13.9 11.2 25.1 25.1 25.1h9.1v35.3h-21c-6.9-19.9-25.8-34.2-48-34.2s-41.1 14.3-48 34.2H375v-60.1c0-4.3-3.2-8-7.5-8.3-4.7-.3-8.6 3.4-8.6 8v60.4H192.8c-6.9-19.9-25.8-34.2-48-34.2s-41.1 14.3-48 34.2h-46c-.3 0-.5-.2-.5-.5v-17.6h34.5c4.3 0 8-3.2 8.3-7.5.3-4.7-3.4-8.5-8-8.5H8.3c-4.3 0-8 3.2-8.3 7.5-.3 4.7 3.4 8.5 8 8.5h26.2v17.6c0 9.2 7.4 16.6 16.6 16.6h43.3v.5c0 28 22.8 50.8 50.8 50.8s50.8-22.8 50.8-50.8v-.5h180.7v.5c0 28 22.8 50.8 50.8 50.8s50.8-22.8 50.8-50.8v-.5h26c4.4 0 8-3.6 8-8v-85.5c0-21.3-15.6-38.9-35.8-41.9zm-23-68.9h-78v-18.2h60.4c9.7 0 17.6 7.9 17.6 17.6v.6zM144.8 401.9c-19.2 0-34.7-15.6-34.7-34.7s15.6-34.7 34.7-34.7c19.2 0 34.7 15.6 34.7 34.7s-15.5 34.7-34.7 34.7zm282.2 0c-19.2 0-34.7-15.6-34.7-34.7s15.6-34.7 34.7-34.7 34.7 15.6 34.7 34.7-15.5 34.7-34.7 34.7zm59.9-102.6c-5 0-9.1-4.1-9.1-9.1v-9.1H496v18.2h-9.1z" fill="url(#b)"/><linearGradient id="c" gradientUnits="userSpaceOnUse" x1="144.835" y1="102" x2="144.835" y2="417.002"><stop offset="0" stop-color="#fdb620"/><stop offset="1" stop-color="#f8931f"/></linearGradient><circle cx="144.8" cy="367.2" r="16.6" fill="url(#c)"/><linearGradient id="d" gradientUnits="userSpaceOnUse" x1="427.023" y1="102" x2="427.023" y2="417.002"><stop offset="0" stop-color="#fdb620"/><stop offset="1" stop-color="#f8931f"/></linearGradient><circle cx="427" cy="367.2" r="16.6" fill="url(#d)"/><linearGradient id="e" gradientUnits="userSpaceOnUse" x1="273.102" y1="102" x2="273.102" y2="417.002"><stop offset="0" stop-color="#fdb620"/><stop offset="1" stop-color="#f8931f"/></linearGradient><path d="M205.2 324.4c0 4.4 3.6 8 8 8H333c4.4 0 8-3.6 8-8s-3.6-8-8-8H213.2c-4.4 0-8 3.6-8 8z" fill="url(#e)"/><linearGradient id="f" gradientUnits="userSpaceOnUse" x1="76.426" y1="102" x2="76.426" y2="417.002"><stop offset="0" stop-color="#fdb620"/><stop offset="1" stop-color="#f8931f"/></linearGradient><path d="M17.1 290.2c0 4.4 3.6 8 8 8h102.6c4.4 0 8-3.6 8-8s-3.6-8-8-8H25.1c-4.4 0-8 3.6-8 8z" fill="url(#f)"/><linearGradient id="g" gradientUnits="userSpaceOnUse" x1="124.954" y1="102" x2="124.954" y2="417.002"><stop offset="0" stop-color="#fdb620"/><stop offset="1" stop-color="#f8931f"/></linearGradient><path d="M6.1 156.1c10.9 17.7 29.7 28.4 50.5 28.7l4.9 10.5c8.5 18.2 24.2 29.4 40.9 29.4h12l2.9 9.2c6 19 17.3 30.4 30.3 30.4h89.6c7 0 12.7-5.7 12.7-12.7V191c0-10.3-2.6-20.5-7.5-29.6-10.6-19.4-30.9-31.4-53-31.4H12.7c-4.6 0-8.8 2.5-11.1 6.5-2.2 4-2.1 8.9.3 12.9l4.2 6.7zm183.3-10.9c16.5 0 31.7 9 39.6 23.5 3.7 6.8 5.7 14.5 5.7 22.2v58.2h-87.1c-5.7 0-12-7.9-15.7-19.7l-1.5-4.6h70.4c4.2 0 7.6-3.4 7.6-7.6s-3.4-7.6-7.6-7.6h-98.4c-10.9 0-21-7.7-27.1-20.7l-1.7-3.7h103.8c4.2 0 7.6-3.4 7.6-7.6s-3.4-7.6-7.6-7.6H62l-3.8-.4h-.7c-15.8 0-30.1-8-38.4-21.4l-1.8-2.9h172.1z" fill="url(#g)"/></svg>