<svg version="1.1" id="_x31_" xmlns="http://www.w3.org/2000/svg" x="0" y="0" viewBox="0 0 512 512" xml:space="preserve"><style>.st0{fill:#888}</style><path class="st0" d="M214.7 402.8c-24.8 0-45 20.2-45 45s20.2 45 45 45 45-20.2 45-45-20.2-45-45-45zm0 64.9c-11 0-19.9-8.9-19.9-19.9s8.9-19.9 19.9-19.9 19.9 8.9 19.9 19.9c0 11-9 19.9-19.9 19.9zm157.9-64.9c-24.8 0-45 20.2-45 45s20.2 45 45 45 45-20.2 45-45c.1-24.8-20.1-45-45-45zm0 64.9c-11 0-19.9-8.9-19.9-19.9s8.9-19.9 19.9-19.9 19.9 8.9 19.9 19.9c0 11-8.9 19.9-19.9 19.9zm11.1-301.9H203.6c-6.9 0-12.6 5.6-12.6 12.6s5.6 12.6 12.6 12.6h180.1c6.9 0 12.6-5.6 12.6-12.6s-5.6-12.6-12.6-12.6zm-9.8 65.2H213.4c-6.9 0-12.6 5.6-12.6 12.6s5.6 12.6 12.6 12.6h160.5c6.9 0 12.6-5.6 12.6-12.6 0-6.9-5.6-12.6-12.6-12.6z"/><path class="st0" d="M506.3 109.7c-4.8-5.9-11.9-9.3-19.5-9.3H95.3L87.4 62c-1.7-8-7.1-14.7-14.6-18L17.6 20c-6.4-2.6-13.8.3-16.6 6.7s.2 13.8 6.5 16.5l55.2 24 60.8 295.3c2.4 11.6 12.8 20.1 24.6 20.1h301.2c6.9 0 12.6-5.6 12.6-12.6 0-6.9-5.6-12.6-12.6-12.6H148.2l-7.4-35.9h310.9c11.9 0 22.2-8.4 24.6-20.1l35.2-170.7c1.5-7.4-.4-15.1-5.2-21zm-54.6 186.6H135.6l-35.2-170.7h386.4l-35.1 170.7z"/></svg>