<svg version="1.1" id="_x31_" xmlns="http://www.w3.org/2000/svg" x="0" y="0" viewBox="0 0 512 512" xml:space="preserve"><style>.st0{fill:#005e98}</style><path class="st0" d="M363.1 157c0-45.5-37-82.5-82.5-82.5-16.4 0-31.8 4.9-45 13.5 2.4-6.9 3.7-14.2 3.7-21.7 0-36.4-29.6-66-66-66s-66 29.6-66 66c0 16.2 5.9 31.5 16.5 43.5v40.9c0 3.6-2.4 6.8-5.9 7.9C73.8 172.5 0 213.5 0 330.3c0 126.7 74.8 178 77.9 180.1l2.1 1.4h186.5l2.1-1.4c3.2-2.1 77.9-53.4 77.9-180.1 0-43.6-10.3-76.6-25.5-101.6 25.8-14.5 42.1-41.7 42.1-71.7zm-82.6-66c36.4 0 66 29.6 66 66 0 24.5-13.6 46.6-34.9 58-3.6-4.7-7.4-9-11.3-13 17.6-7.6 29.7-24.9 29.7-45 0-27.3-22.2-49.5-49.5-49.5S231 129.7 231 157c0 .8.2 1.6.2 2.4-.8-.3-1.7-.6-2.6-.9-3.5-1.1-5.9-4.3-5.9-7.9v-25.3c11.7-21.2 33.6-34.3 57.8-34.3zm5.9 98.1c-12.4-10-25.2-17.3-37.3-22.7-.9-3.1-1.6-6.2-1.6-9.4 0-18.2 14.8-33 33-33s33 14.8 33 33c0 16.1-11.5 29.3-27.1 32.1zM330 330.3c0 106.6-57.5 156.4-68.7 165H85.2c-11.2-8.6-68.7-58-68.7-165 0-100.9 57.8-140.6 106.4-156 10.4-3.3 17.4-12.8 17.4-23.6v-34.9h66v34.9c0 10.8 7 20.3 17.4 23.6 48.5 15.4 106.3 55 106.3 156z"/><path class="st0" d="M173.3 190c-63.5 0-132 53.6-132 140.3 0 26.5 5 52.5 14.8 77.3l2.1 5.2h230.3l2.1-5.2c9.8-24.8 14.8-50.8 14.8-77.3-.1-86.7-68.6-140.3-132.1-140.3zm33 140.3h-99v-16.5h99v16.5zm33 0h-16.5v-16.5h16.5v16.5zm0-33h-132v-16.5h132v16.5zm123.3 33l7.9 158c.7 13.2 11.5 23.5 24.7 23.5h84.1c13.2 0 24.1-10.3 24.7-23.5l7.9-158H362.6zm130.8 41.2h-14.8V388h14l-5 99.4c-.2 4.4-3.8 7.8-8.2 7.8h-84.1c-4.4 0-8-3.4-8.2-7.8l-5-99.4h80v-16.5h-80.9l-1.2-24.8h114.7l-1.3 24.8z"/></svg>