<svg version="1.1" id="_x31_" xmlns="http://www.w3.org/2000/svg" x="0" y="0" viewBox="0 0 512 512" xml:space="preserve"><style>.st0{fill:#005e98}</style><path class="st0" d="M371.2 317.1c27.1 0 48.4-29.1 48.4-66.3 0-37.2-21.3-66.3-48.4-66.3-27.1 0-48.4 29.1-48.4 66.3.1 37.2 21.3 66.3 48.4 66.3zm-209.7-91.6c27.9 0 50.6-31.5 50.6-70.2s-22.7-70.2-50.6-70.2-50.6 31.5-50.6 70.2c-.1 38.7 22.6 70.2 50.6 70.2zm120.5 0c27.9 0 50.7-31.5 50.7-70.2S310 85.1 282 85.1c-27.9 0-50.6 31.5-50.6 70.2s22.7 70.2 50.6 70.2zm-156.4 25.3c0-37.2-21.2-66.3-48.4-66.3s-48.4 29.1-48.4 66.3c0 37.2 21.2 66.3 48.4 66.3s48.4-29.1 48.4-66.3zM320.4 430c15.8-9.5 23-28.7 23.7-47.2.9-22.7-7.5-44.5-18.7-63.5-.4-.6-.8-1.3-1.1-1.9-10.5-17.4-23.3-33.4-40.4-43.7-18.1-11-38.9-16.1-59.7-16.5h-2.1c-21.1 0-42.3 5-60.7 16.2-7.6 4.6-14.6 10.2-20.8 16.7-8 8.4-14.4 18.3-20.2 28.5-5.8 10.1-12 20.3-15.7 31.6-3.5 10.8-5.4 22.3-4.9 33.8.8 19.4 8.4 35 21.2 43.7 4.9 3.3 10.1 5 15.6 5 12 0 23.8-7.7 37.5-16.6 14.4-9.4 34-24.5 52.3-21.7 15.7 2.4 30.4 13.6 43.1 22.5 12.8 8.9 24.8 17.2 36.7 17.2 4.9 0 9.7-1.4 14.2-4.1z"/><path class="st0" d="M441.7 163.2c-5 0-10 .6-14.8 1.9-2.7-.7-5.4-1.2-8.2-1.5v-.2c.6-4.9.9-9.8.9-14.8 0-51.9-33.3-94.1-74.2-94.1-5 0-10 .7-14.8 1.9-4.8-1.2-9.8-1.9-14.9-1.9-5 0-10 .7-14.8 1.9-4.8-1.2-9.8-1.9-14.9-1.9-11.8 0-23.2 3.6-33.4 10.1-10.2-6.6-21.6-10.1-33.4-10.1-5.1 0-10.1.7-14.9 1.9-4.8-1.3-9.8-1.9-14.9-1.9s-10.1.7-14.9 1.9c-4.8-1.3-9.8-1.9-14.8-1.9-40.9 0-74.2 42.2-74.2 94.1 0 4.3.2 8.6.7 12.8.1 1.2-.5 2-.9 2.4-.4.4-1.2.9-2.4.7-4-.8-8.1-1.3-12.2-1.3-39.3 0-70.1 38.5-70.1 87.6 0 49.1 30.8 87.6 70.1 87.6 2.2 0 4.5-.1 6.7-.4 1.4-.1 2.2.6 2.5 1.1.4.4.9 1.4.5 2.7-4.5 14-6.5 28-5.8 41.6 1.3 28.6 13.4 52 34.2 65.7 9.6 6.4 20.1 9.6 31.3 9.6 5.3 0 10.3-.7 15.1-2 4.7 1.3 9.6 2 14.6 2 5.3 0 10.3-.7 15.1-2 4.7 1.3 9.6 2 14.6 2 20.1 0 36.4-10.4 52.2-20.4.1-.1.2-.1.3-.2l.9.6c14.7 10 31.4 21.3 51.9 21.3 5 0 9.9-.7 14.7-2 4.8 1.3 9.8 2 15 2 5 0 9.9-.7 14.7-2 4.8 1.3 9.8 2 15 2 10 0 19.5-2.7 28.4-7.9 33.2-19.4 46.4-65.3 32.2-111.6-.5-1.5.3-2.5.6-2.9.4-.4 1.2-1.1 2.5-.8 4.4 1 9 1.6 13.5 1.6 39.3 0 70.1-38.5 70.1-87.6.3-49.1-30.5-87.6-69.8-87.6zm-85.3 276.7c-2.3 1.4-4.7 2.5-7.2 3.4-1-.3-1.9-.7-2.9-1.1 23.4-22.7 31.4-62.1 19.3-101.8-.5-1.5.3-2.5.6-2.9.4-.4 1.2-1.1 2.5-.8 4.2 1 8.5 1.5 12.9 1.6-.1 2.1.1 4.3.7 6.4 12.3 40 1.6 79.1-25.9 95.2zm65.7-116.7c18.4-15.6 30.2-42 30.2-72.5 0-29.2-10.9-54.6-27.9-70.4-.7-.7-1.5-1.4-2.3-2 1.6.4 3.2.8 4.8 1.4 24.2 8.3 41.5 36.6 41.5 71.1 0 36.7-19.6 66.4-46.3 72.4zm-16-174.6c0 4.4-.3 8.7-.8 13-.1.7-.1 1.3-.1 2-2.7.3-5.4.8-8 1.5-2.7-.7-5.4-1.2-8.2-1.5v-.2c.6-4.9.9-9.8.9-14.8 0-33-13.4-62-33.7-78.8 28.3 6.6 49.9 39.4 49.9 78.8zm-77.4-76.9c.7-.3 1.3-.5 2-.7 26.2 8.8 45.6 40.3 45.6 77.6 0 4.4-.3 8.7-.8 13-.1.7-.1 1.3-.1 2-4.2.5-8.4 1.5-12.4 2.9-1.3.5-2.3-.1-2.7-.5-.4-.4-1.2-1.2-1-2.6.6-4.9.9-9.8.9-14.8-.1-31.8-12.5-59.9-31.5-76.9zM265 430.1c-1.5-1-3.1-2.1-4.6-3.1-.9-.6-1.7-1.2-2.6-1.7-.9-.6-1.9-1.3-2.8-1.9-.9-.6-1.9-1.2-2.8-1.9-4.7-3.1-9.5-6-14.5-8.5-.5-.2-.9-.5-1.4-.7l-1-.5-1.1-.1c-1.2-.2-5.8-.7-12.8-.7-4.7 0-7.7.2-9.5.4l-1 .1-1 .4c-8.5 3.9-16.9 9.2-25 14.3-4.6 2.9-8.9 5.7-13.3 8.1-4.5 2.6-9 4.9-13.5 6.6-1 .4-1.9.7-2.9 1-4.9 1.6-10 2.5-15.4 2.5-2.9 0-5.7-.3-8.5-.9-5.4-1.1-10.5-3.3-15.4-6.5-17-11.2-26.9-30.6-28-54.5-.5-11.9 1.2-24.2 5.2-36.5.9-2.7 1-5.5.6-8.1-.5-2.8-1.6-5.5-3.4-7.8-3.6-4.5-9-6.8-14.6-6.2-1.7.2-3.4.3-5.1.3-3.5 0-6.8-.4-10.1-1.1-26.7-6.1-46.3-35.7-46.3-72.4 0-36.8 19.7-66.4 46.3-72.5 3.3-.7 6.6-1.1 10.1-1.1 3.2 0 6.3.3 9.4 1 5.1 1.1 10.5-.4 14.3-4.1 3-2.9 4.9-6.8 5.3-10.9.1-1.1.1-2.2 0-3.4-.4-3.7-.6-7.5-.6-11.2 0-39.3 21.5-72.1 49.9-78.8 3.5-.8 7-1.3 10.7-1.3 5 0 10 .9 14.8 2.5.7.2 1.3.5 2 .7 4.5 1.7 8.8 4.2 12.9 7.2 7.4 5.6 14 13.3 19.2 22.6 1.5 2.7 3.6 4.9 6 6.3 2.4 1.5 5.3 2.3 8.3 2.3 6 0 11.3-3.2 14.3-8.6.2-.3.4-.7.6-1 2.6-4.5 5.4-8.6 8.6-12.2 2-2.3 4.1-4.4 6.3-6.4 3.7-3.2 7.6-5.9 11.7-8 3.6-1.9 7.3-3.2 11.1-4.2 3.5-.9 7.1-1.3 10.7-1.3 5.2 0 10.2.9 15 2.5.6.2 1.3.4 1.9.7 4.6 1.8 8.9 4.2 13 7.3 18.3 13.8 30.7 39.8 30.7 69.7 0 4.4-.3 8.7-.8 13-.7 5.8 1.5 11.5 5.9 15.2 4.4 3.7 10.3 4.8 15.7 2.9 4.7-1.6 9.6-2.5 14.6-2.5h.3c5.2 0 10.2.9 14.9 2.5 24.2 8.3 41.5 36.6 41.5 71.1 0 41.3-24.8 73.6-56.4 73.6-3.5 0-7-.4-10.4-1.2-5.8-1.4-11.6.5-15.6 5-4.1 4.5-5.4 10.7-3.6 16.6 11.3 36.6 3.2 72.6-19.6 90.8-2 1.6-4.2 3.1-6.4 4.4-2.3 1.4-4.7 2.5-7.2 3.4-4.7 1.7-9.5 2.6-14.5 2.6-5.3 0-10.4-1-15.2-2.6-8.8-2.8-16.8-7.8-24.9-13.2zm121.1 9.8c-4.2 2.5-8.6 4.2-13.2 5.2 25.8-22.1 35.1-63.2 22.4-104.6-.5-1.5.3-2.5.6-2.9.4-.4 1.2-1.1 2.5-.8 4.2 1 8.5 1.5 12.9 1.6-.1 2.1.1 4.3.7 6.4 12.3 39.9 1.7 79-25.9 95.1zm65.8-116.7c18.4-15.6 30.2-42 30.2-72.5 0-30.4-11.8-56.8-30.2-72.4 26.6 6.1 46.3 35.7 46.3 72.4 0 36.8-19.7 66.5-46.3 72.5z"/></svg>