<svg xmlns="http://www.w3.org/2000/svg" viewBox="0 0 512 512"><path d="M484.7 116.8h-71c11.6-12.6 18.7-29.3 18.7-47.8v-3.6c-.8-22.7-13.2-43-33.1-54.2-20.4-11.4-44.7-11.4-65 0L302 29.4c-20.2 11.4-36.1 28.6-45.9 48.9-9.8-20.2-25.7-37.4-45.9-48.9l-32.3-18.2c-20.3-11.5-44.6-11.5-65 0-20 11.2-32.4 31.5-33.1 54.2V69c0 18.4 7.1 35.2 18.7 47.8h-71C12.3 116.8 0 129.1 0 144.1V209c0 15.1 12.3 27.3 27.3 27.3h12.5V482c0 15.1 12.3 27.3 27.3 27.3h377.7c15.1 0 27.3-12.3 27.3-27.3V236.3h12.5c15.1 0 27.3-12.3 27.3-27.3v-64.8c.1-15.1-12.2-27.4-27.2-27.4zM313.1 49.3l32.3-18.2c13.3-7.5 29.3-7.5 42.6 0 13 7.3 21 20.4 21.5 35.1V69c0 26.3-21.4 47.8-47.8 47.8H268c3.4-28.1 20.1-53.4 45.1-67.5zM102.4 66.2c.5-14.7 8.5-27.8 21.5-35.1 6.7-3.8 14-5.6 21.4-5.6 7.3 0 14.6 1.9 21.3 5.6l32.3 18.2c25 14.1 41.7 39.4 45.1 67.5h-93.8c-26.3 0-47.8-21.4-47.8-47.8v-2.8zm102.4 204.7H158c-6.3 0-11.4 5.1-11.4 11.4 0 6.3 5.1 11.4 11.4 11.4h46.8v192.9H67.1c-2.5 0-4.6-2-4.6-4.6V236.3h142.2v34.6zm0-57.4H27.3c-2.5 0-4.6-2-4.6-4.6v-64.8c0-2.5 2-4.6 4.6-4.6h177.5v74zM449.4 482c0 2.5-2 4.6-4.6 4.6H307.2v-193h43.4c6.3 0 11.4-5.1 11.4-11.4 0-6.3-5.1-11.4-11.4-11.4h-43.4v-34.6h142.2V482zm39.8-273c0 2.5-2 4.6-4.6 4.6H307.2v-74h177.5c2.5 0 4.6 2 4.6 4.6V209z" fill="#005e98"/></svg>