<svg xmlns="http://www.w3.org/2000/svg" viewBox="0 0 512 512"><path d="M187.7 234.2c0-11.5-9.4-20.9-20.9-20.9h-4.7v-21.8c0-11.5-9.4-20.9-20.9-20.9H89.1c-11.5 0-20.9 9.4-20.9 20.9v21.8h-4.7c-11.5 0-20.9 9.4-20.9 20.9V256H17.1v233.4c0 12.5 10.1 22.6 22.6 22.6h151.1c12.5 0 22.6-10.1 22.6-22.6V256h-25.6v-21.8zm-128 0c0-2.1 1.7-3.8 3.8-3.8h103.3c2.1 0 3.8 1.7 3.8 3.8V256H59.7v-21.8zm136.6 255.2c0 3-2.5 5.5-5.5 5.5H39.7c-3 0-5.5-2.5-5.5-5.5v-20.1h162.1v20.1zm0-216.3v145.1H34.1V273.1h162.2zM115.2 0c-55 0-98.1 41.2-98.1 93.9v44.3c0 8.5 6.9 15.5 15.5 15.5H198c8.5 0 15.5-6.9 15.5-15.5V93.9C213.3 41.2 170.2 0 115.2 0zm81.1 136.5H34.1V93.9c0-43.1 35.6-76.8 81.1-76.8s81.1 33.7 81.1 76.8v42.6zm221.8 188.2v-26H247.5v8.5c0 14.5-.1 16.6-.1 17.2v170.2c0 9.6 7.8 17.4 17.4 17.4h136c9.6 0 17.4-7.8 17.4-17.4v-.1c43.1-4.3 76.8-40.7 76.8-84.9s-33.8-80.6-76.9-84.9zm-17.2 111.1H264.5v-52.3h136.4v52.3zm17.2-.6v-58.5c14.7 3.8 25.6 17.1 25.6 32.9s-10.9 29.1-25.6 32.9v-7.3zm0 42.1v-17.2c24.2-4.1 42.7-25.2 42.7-50.5s-18.5-46.4-42.7-50.5v-17.2c33.6 4.2 59.7 33 59.7 67.7s-26 63.5-59.7 67.7zM264.8 221.9h136c9.6 0 17.4-7.8 17.4-17.4v-.1c43.1-4.3 76.8-40.7 76.8-84.9s-33.7-80.6-76.8-84.9v-26H247.5v8.5c0 14.5-.1 16.6-.1 17.2v170.2c.1 9.6 7.8 17.4 17.4 17.4zm153.3-128v-7.3c14.7 3.8 25.6 17.1 25.6 32.9s-10.9 29.1-25.6 32.9V93.9zm59.8 25.6c0 34.7-26.1 63.5-59.7 67.7V170c24.2-4.1 42.7-25.2 42.7-50.5S442.3 73.1 418.1 69V51.7c33.7 4.2 59.8 33 59.8 67.8zM264.5 34.6c0-.1 0-.6.1-9h136.5v8.6l-.1 59.7H264.5V34.6zm136.4 110.5l-.1 59.7-136.2-.3v-59.4h136.3z" fill="#005e98"/></svg>