<svg xmlns="http://www.w3.org/2000/svg" viewBox="0 0 512 512"><path d="M267.1 44.8V11.1C267.1 5 262.1 0 256 0s-11.1 5-11.1 11.1v33.7C108.9 50.7 0 163.1 0 300.5c0 6.1 5 11.1 11.1 11.1 25.3 0 38.4-14.3 49-25.9 9.5-10.4 17.1-18.6 32.6-18.6s23 8.2 32.6 18.6c8.6 9.4 19.1 20.6 36.5 24.4 1.6.8 3.3 1.4 5.2 1.4.7 0 1.3-.3 1.9-.4 1.8.2 3.5.4 5.5.4 25.3 0 38.5-14.3 49-25.9 6.9-7.6 12.8-13.9 21.5-16.9v187.4c0 .4 0 .9.1 1.3.7 30.1 25.4 54.4 55.6 54.4 30.7 0 55.7-25 55.7-55.7 0-6.1-5-11.1-11.1-11.1-6.2 0-11.1 5-11.1 11.1 0 18.4-15 33.4-33.4 33.4s-33.4-15-33.4-33.4c0-.4 0-.8-.1-1.2v-186c8.6 2.9 14.5 9.3 21.5 16.9 10.6 11.5 23.7 25.9 49 25.9 2 0 3.7-.2 5.6-.4.6.1 1.2.4 1.9.4 1.9 0 3.7-.6 5.3-1.5 17.2-3.9 27.7-15 36.3-24.4 9.5-10.4 17.1-18.7 32.6-18.7s23.1 8.2 32.6 18.7c10.6 11.5 23.7 25.9 49 25.9 6.2 0 11.1-5 11.1-11.1-.1-137.5-108.9-249.9-245-255.8zm37.8 225.9c-10.6-11.5-23.7-25.9-49-25.9s-38.5 14.3-49 25.9c-8.7 9.5-15.7 17-28.6 18.4C181.2 136 238.5 81.8 256 68.9c17.6 12.9 74.9 67.2 77.6 220.2-12.9-1.3-20-8.9-28.7-18.4z" fill="#005e98"/></svg>